<?xml version='1.0' encoding='iso-8859-1'?>
<svg version="1.1" xmlns="http://www.w3.org/2000/svg" viewBox="0 0 8.64 8.64" xmlns:xlink="http://www.w3.org/1999/xlink" enable-background="new 0 0 8.64 8.64">
  <g>
    <g>
      <path fill="#020400" fill-rule="evenodd" d="m1.944,2.283c0.094,0.094 0.246,0.094 0.339,0 0.094-0.094 0.094-0.246 0-0.34l-.679-.678c-0.094-0.094-0.246-0.094-0.339,0-0.094,0.094-0.094,0.246 0,0.34l.679,.678zm-.504,2.037c0-0.133-0.107-0.24-0.24-0.24h-0.96c-0.133-0.001-0.24,0.107-0.24,0.24s0.107,0.24 0.24,0.24h0.96c0.133-8.88178e-16 0.24-0.108 0.24-0.24zm.504,2.037l-.679,.678c-0.094,0.094-0.094,0.245 0,0.339 0.094,0.094 0.246,0.094 0.339,0l.679-.679c0.094-0.094 0.094-0.245 0-0.339-0.094-0.093-0.245-0.093-0.339,0.001zm2.376-4.917c0.133-4.44089e-16 0.24-0.107 0.24-0.24v-0.96c-8.88178e-16-0.133-0.107-0.24-0.24-0.24-0.132,0-0.24,0.107-0.24,0.239v0.96c0,0.133 0.108,0.241 0.24,0.241zm2.376,.843l.679-.679c0.094-0.094 0.094-0.246 0-0.34-0.094-0.094-0.246-0.094-0.34,0l-.679,.68c-0.094,0.094-0.094,0.246 0,0.34 0.094,0.093 0.246,0.093 0.34-0.001zm-2.376-.124c-1.193,0-2.16,0.968-2.16,2.16 0,1.193 0.967,2.16 2.16,2.16 1.193,0 2.16-0.967 2.16-2.16 0-1.192-0.967-2.16-2.16-2.16zm0,3.841c-0.928,0-1.68-0.753-1.68-1.68s0.753-1.68 1.68-1.68c0.927-4.44089e-16 1.68,0.752 1.68,1.68s-0.753,1.68-1.68,1.68zm4.08-1.921h-0.96c-0.133,0-0.24,0.107-0.24,0.24s0.107,0.24 0.24,0.24h0.96c0.133,0 0.24-0.107 0.24-0.24s-0.107-0.24-0.24-0.24zm-1.704,2.278c-0.094-0.094-0.246-0.094-0.34,0-0.094,0.094-0.094,0.245 0,0.339l.679,.679c0.094,0.094 0.246,0.094 0.34,0 0.094-0.094 0.094-0.245 0-0.339l-.679-.679zm-2.376,.842c-0.132,0-0.24,0.107-0.24,0.24v0.961c0,0.133 0.108,0.24 0.24,0.24 0.133,0 0.24-0.107 0.24-0.24v-0.96c-8.88178e-16-0.133-0.107-0.241-0.24-0.241z"/>
    </g>
  </g>
</svg>
