<?xml version="1.0" standalone="no"?>
<!DOCTYPE svg PUBLIC "-//W3C//DTD SVG 20010904//EN"
 "http://www.w3.org/TR/2001/REC-SVG-20010904/DTD/svg10.dtd">
<svg version="1.0" xmlns="http://www.w3.org/2000/svg"
 width="300.000000pt" height="300.000000pt" viewBox="0 0 300.000000 300.000000"
 preserveAspectRatio="xMidYMid meet">
<metadata>
Created by potrace 1.10, written by Peter Selinger 2001-2011
</metadata>
<g transform="translate(0.000000,300.000000) scale(0.100000,-0.100000)"
fill="#000000" stroke="none">
<path d="M1850 2854 c-91 -7 -201 -15 -245 -18 -44 -4 -107 -8 -140 -11 -33
-3 -184 -14 -335 -25 -504 -36 -565 -42 -575 -52 -7 -7 3 -8 30 -4 37 6 201
18 620 47 384 26 982 77 900 76 -49 0 -164 -6 -255 -13z"/>
<path d="M2216 2835 c12 -18 21 -57 25 -100 l6 -70 1 71 c2 64 -1 74 -25 100
l-26 29 19 -30z"/>
<path d="M501 2736 c-19 -20 -22 -32 -18 -87 l3 -64 2 67 c3 101 18 90 21 -15
1 -51 3 -114 6 -142 2 -27 9 -122 15 -210 20 -305 40 -620 45 -715 3 -52 8
-122 10 -155 5 -59 10 -145 40 -665 8 -140 20 -329 26 -419 5 -90 8 -165 5
-168 -4 -5 -12 55 -20 147 -2 25 -3 2 -3 -50 0 -84 3 -98 24 -123 13 -16 23
-32 23 -36 0 -4 19 -17 42 -27 39 -17 67 -19 338 -17 289 2 380 9 635 49 50 7
133 18 185 24 176 19 382 60 426 86 41 23 71 71 61 96 -3 8 -6 6 -6 -5 -2 -32
-39 -74 -79 -90 -50 -20 -221 -51 -457 -82 -104 -13 -221 -29 -260 -34 -199
-27 -271 -31 -510 -32 -264 0 -322 6 -356 36 -24 23 -27 43 -39 263 -13 236
-77 1303 -89 1492 -47 688 -55 842 -43 861 26 42 8 52 -27 15z"/>
<path d="M555 2660 c3 -25 8 -100 11 -168 4 -68 10 -119 13 -114 8 13 -7 234
-19 287 l-9 40 4 -45z"/>
<path d="M2241 2624 c0 -11 3 -14 6 -6 3 7 2 16 -1 19 -3 4 -6 -2 -5 -13z"/>
<path d="M1778 2585 c-7 -7 2 -55 11 -55 3 0 6 14 6 30 1 28 -5 37 -17 25z"/>
<path d="M1820 2566 c0 -25 16 -43 28 -31 3 3 0 10 -8 15 -13 9 -13 10 0 10
12 0 13 2 1 9 -11 7 -11 9 0 14 10 4 9 6 -3 6 -13 1 -18 -7 -18 -23z"/>
<path d="M1680 2555 c0 -22 2 -24 14 -13 9 8 10 15 4 19 -6 4 -5 9 3 12 10 4
9 6 -3 6 -13 1 -18 -7 -18 -24z"/>
<path d="M1723 2555 c0 -14 3 -25 8 -25 5 0 9 6 9 13 0 9 3 8 9 -2 6 -9 9 -5
9 13 0 18 -6 26 -18 26 -12 0 -17 -8 -17 -25z"/>
<path d="M1486 2563 c-12 -13 -6 -53 9 -53 9 0 15 9 15 24 0 26 -12 40 -24 29z"/>
<path d="M1531 2543 c-1 -25 3 -33 17 -33 11 0 13 3 6 8 -7 4 -14 18 -17 32
-4 21 -4 20 -6 -7z"/>
<path d="M1570 2546 c0 -25 16 -43 28 -31 3 3 0 10 -8 15 -13 9 -13 10 0 10
12 0 13 2 1 9 -11 7 -11 9 0 14 10 4 9 6 -3 6 -13 1 -18 -7 -18 -23z"/>
<path d="M493 2505 c0 -33 2 -45 4 -27 2 18 2 45 0 60 -2 15 -4 0 -4 -33z"/>
<path d="M1384 2545 c-4 -8 -4 -22 0 -30 6 -17 26 -20 26 -4 0 5 -4 7 -10 4
-5 -3 -10 1 -10 9 0 9 5 16 10 16 6 0 10 5 10 10 0 16 -20 12 -26 -5z"/>
<path d="M1436 2545 c-3 -9 -6 -24 -5 -33 0 -11 2 -13 6 -4 4 10 8 10 20 0 14
-11 15 -10 8 12 -10 35 -21 44 -29 25z"/>
<path d="M1113 2505 c0 -19 4 -32 9 -29 4 3 8 16 8 29 0 13 -4 26 -8 29 -5 3
-9 -10 -9 -29z"/>
<path d="M1151 2508 c0 -28 2 -30 9 -13 12 28 12 45 0 45 -5 0 -10 -15 -9 -32z"/>
<path d="M1176 2514 c-4 -15 -5 -29 -1 -32 3 -3 5 0 5 7 0 7 5 9 10 6 6 -4 10
5 10 19 0 34 -16 33 -24 0z"/>
<path d="M1221 2515 c-1 -23 2 -26 9 -15 6 10 10 11 10 3 0 -7 4 -13 9 -13 4
0 6 12 3 26 -3 17 -7 22 -12 14 -6 -9 -9 -9 -13 1 -3 8 -6 1 -6 -16z"/>
<path d="M1274 2515 c-1 -14 3 -25 10 -25 6 0 11 11 11 25 0 33 -20 33 -21 0z"/>
<path d="M1021 2511 c-11 -19 -11 -25 0 -32 15 -9 23 9 17 39 -3 14 -6 13 -17
-7z"/>
<path d="M1060 2522 c0 -4 5 -13 12 -20 9 -9 9 -12 -1 -12 -7 0 -9 -4 -6 -10
12 -20 25 -9 25 20 0 20 -5 30 -15 30 -8 0 -15 -4 -15 -8z"/>
<path d="M2251 2454 c0 -11 3 -14 6 -6 3 7 2 16 -1 19 -3 4 -6 -2 -5 -13z"/>
<path d="M1735 2442 c-247 -14 -660 -54 -672 -64 -12 -10 -13 -35 -8 -142 8
-145 14 -167 33 -135 8 12 9 18 3 15 -6 -4 -9 6 -9 23 1 17 5 28 11 24 5 -3 5
2 -1 13 -5 11 -7 25 -4 33 2 8 0 11 -5 8 -5 -3 -9 16 -8 44 1 27 -2 54 -6 60
-17 28 3 48 55 53 88 10 283 26 511 42 50 4 93 8 97 10 14 9 38 -29 38 -60 0
-19 3 -48 6 -65 5 -26 3 -31 -12 -31 -11 0 -24 11 -31 25 -6 14 -8 25 -3 25 4
0 10 7 13 14 4 10 1 13 -9 9 -7 -3 -14 -9 -14 -13 0 -5 -16 -6 -35 -3 -24 4
-43 0 -61 -12 -20 -13 -29 -14 -38 -5 -8 8 -6 9 9 4 19 -7 19 -6 3 12 -13 13
-21 15 -28 8 -8 -8 -7 -14 4 -23 20 -17 8 -48 -23 -60 l-26 -9 30 -1 c37 -1
52 8 56 34 6 28 55 51 75 35 7 -7 14 -9 14 -4 1 10 30 -67 30 -79 0 -5 -6 -5
-12 -1 -7 4 -10 4 -6 -1 10 -11 -22 -34 -48 -35 -12 0 -27 6 -33 14 -6 8 -20
16 -31 19 -17 4 -18 2 -9 -16 10 -17 7 -23 -12 -38 -29 -23 -12 -25 19 -3 19
13 21 18 10 32 -9 12 -6 12 9 -2 17 -14 32 -17 62 -13 22 3 42 2 46 -1 3 -3
13 -7 21 -8 14 -2 14 0 0 15 -13 14 -14 24 -7 45 14 35 41 34 41 -1 0 -16 3
-45 6 -65 l6 -36 -43 -6 c-24 -3 -134 -12 -244 -21 -291 -23 -429 -36 -433
-40 -2 -2 3 -108 11 -237 8 -128 17 -291 21 -362 3 -72 10 -134 15 -139 6 -6
53 -6 128 1 65 6 228 21 362 34 180 16 249 26 262 38 17 14 18 25 9 145 -5 72
-16 265 -25 430 -23 420 -26 445 -50 459 -11 6 -42 10 -70 8z m75 -63 c0 -11
-4 -17 -10 -14 -5 3 -10 13 -10 21 0 8 5 14 10 14 6 0 10 -9 10 -21z m-3 -66
c-3 -10 -5 -4 -5 12 0 17 2 24 5 18 2 -7 2 -21 0 -30z m-67 -58 c0 -5 -5 -3
-10 5 -5 8 -10 20 -10 25 0 6 5 3 10 -5 5 -8 10 -19 10 -25z m75 26 c3 -5 2
-12 -3 -15 -5 -3 -9 1 -9 9 0 17 3 19 12 6z m4 -149 c-1 -10 0 -19 1 -22 1 -3
3 -25 5 -48 1 -28 -1 -38 -7 -29 -4 8 -8 26 -8 39 0 12 -1 37 -3 55 -2 18 0
30 5 27 5 -3 8 -13 7 -22z m-24 -134 l7 -118 -55 0 c-31 0 -59 -5 -63 -11 -5
-8 11 -9 55 -4 l61 7 0 -34 c0 -18 3 -43 6 -55 5 -19 2 -23 -18 -23 -31 0 -48
-17 -49 -50 l-1 -25 -8 25 c-8 24 -8 24 -9 -6 -1 -33 27 -54 62 -46 27 6 20
20 -8 14 -23 -4 -25 -2 -23 32 2 26 8 36 20 36 9 0 22 2 30 5 10 4 13 -8 14
-45 1 -59 14 -54 -171 -70 -71 -6 -148 -13 -170 -15 -179 -17 -337 -26 -349
-22 -10 4 -14 18 -12 46 2 22 0 39 -3 37 -3 -2 -6 29 -7 69 l-1 72 151 13
c334 28 415 38 351 41 -46 2 -51 3 -22 6 40 4 52 23 15 23 -35 0 -68 -11 -62
-21 7 -12 -21 -16 -186 -29 -80 -6 -170 -13 -200 -16 -52 -5 -56 -4 -57 17 -1
13 3 29 9 36 7 9 7 13 -1 13 -6 0 -11 5 -11 11 0 5 5 7 10 4 6 -3 10 3 10 15
0 12 -4 18 -10 15 -5 -3 -10 3 -10 14 0 12 5 21 10 21 14 0 8 23 -10 37 -13
11 -13 12 0 13 13 0 13 1 0 10 -8 5 -12 11 -9 14 4 4 698 64 706 62 0 -1 4
-54 8 -118z m35 2 c0 -5 -4 -10 -10 -10 -5 0 -10 5 -10 10 0 6 5 10 10 10 6 0
10 -4 10 -10z m-3 -72 c-3 -7 -5 -2 -5 12 0 14 2 19 5 13 2 -7 2 -19 0 -25z
m0 -50 c-3 -7 -5 -2 -5 12 0 14 2 19 5 13 2 -7 2 -19 0 -25z m11 -44 c1 -14
-2 -23 -8 -19 -12 7 -14 45 -2 45 4 0 9 -11 10 -26z m3 -191 c-12 -20 -14 -14
-5 12 4 9 9 14 11 11 3 -2 0 -13 -6 -23z m-21 -58 c0 -25 -5 -45 -11 -45 -5 0
-8 -4 -5 -8 2 -4 1 -14 -5 -22 -7 -13 -9 -12 -9 2 0 24 -16 31 -40 18 -27 -14
-28 -60 0 -60 10 0 24 8 29 18 8 13 11 14 11 2 0 -8 8 -1 18 15 l17 30 3 -25
c2 -13 -1 -26 -7 -28 -6 -2 -18 -16 -26 -31 -12 -25 -12 -28 3 -28 9 0 23 4
30 10 14 11 16 -1 3 -22 -10 -15 -88 -24 -208 -25 -33 -1 -60 -3 -58 -6 2 -3
-4 -6 -13 -7 -9 0 -42 -3 -72 -6 -32 -3 -60 -1 -68 5 -10 8 -11 7 -6 -8 5 -18
5 -18 -10 0 -9 11 -16 15 -16 8 0 -6 -7 -9 -15 -6 -8 4 -12 10 -9 15 3 5 -3 6
-12 2 -11 -4 -13 -8 -6 -11 27 -9 9 -19 -35 -20 -27 0 -73 -3 -105 -7 -41 -4
-58 -3 -64 7 -12 19 -13 58 -1 58 5 0 4 7 -3 15 -7 8 -10 24 -7 34 2 11 1 39
-3 63 -5 23 -7 44 -6 45 1 1 126 14 277 27 151 14 292 27 314 29 22 2 57 4 78
5 l37 2 0 -45z m34 -15 c-5 -5 -10 3 -11 18 -1 22 0 24 9 8 6 -10 6 -22 2 -26z
m-2 -55 c3 -13 1 -22 -3 -19 -9 5 -13 44 -5 44 2 0 6 -11 8 -25z m-72 1 c0 -8
-4 -18 -10 -21 -5 -3 -10 3 -10 14 0 12 5 21 10 21 6 0 10 -6 10 -14z m-33
-28 c-3 -7 -5 -2 -5 12 0 14 2 19 5 13 2 -7 2 -19 0 -25z m113 -34 c0 -8 -5
-14 -11 -14 -5 0 -8 4 -4 9 3 5 1 12 -5 16 -5 3 -10 -1 -10 -9 0 -18 -16 -30
-24 -17 -9 14 22 41 39 35 8 -4 15 -12 15 -20z"/>
<path d="M1575 2080 c-29 -5 -35 -8 -23 -14 23 -11 71 -3 76 12 2 6 0 11 -5
11 -4 -1 -26 -5 -48 -9z"/>
<path d="M1726 2083 c-3 -4 -16 -8 -28 -10 -12 -2 -25 -8 -29 -14 -4 -8 -8 -7
-12 2 -4 10 -6 9 -6 -3 -1 -10 6 -18 14 -18 8 0 15 5 15 11 0 8 4 8 14 0 10
-8 21 -8 41 -1 23 9 25 13 15 25 -14 17 -14 17 -24 8z"/>
<path d="M1280 2061 l-45 -6 -3 -49 c-3 -37 -1 -47 10 -44 16 6 23 55 10 71
-8 9 1 11 34 8 35 -2 44 0 44 13 0 9 -1 15 -2 14 -2 0 -23 -4 -48 -7z"/>
<path d="M1494 2040 c-4 -16 -10 -30 -15 -30 -5 0 -9 -7 -9 -15 0 -8 9 -15 20
-15 14 0 20 7 20 23 0 12 3 32 6 45 4 13 2 22 -5 22 -6 0 -14 -13 -17 -30z"/>
<path d="M1336 2045 c-3 -9 -6 -26 -7 -38 0 -21 -1 -21 -9 -2 -8 18 -9 18 -9
-5 -1 -18 4 -26 18 -27 15 -1 20 7 24 35 5 40 -6 64 -17 37z"/>
<path d="M1536 2053 c-9 -10 -7 -63 3 -63 11 0 20 59 11 65 -4 3 -10 2 -14 -2z"/>
<path d="M1200 2041 c0 -7 -4 -10 -8 -7 -4 2 -7 -12 -5 -32 2 -32 1 -34 -6
-12 l-9 25 -1 -27 c-1 -21 4 -28 18 -28 14 0 20 10 24 37 4 21 2 42 -3 47 -7
7 -10 6 -10 -3z"/>
<path d="M1734 2009 c-2 -33 4 -33 11 -1 2 12 1 24 -3 26 -4 2 -8 -9 -8 -25z"/>
<path d="M1550 1979 c-11 -7 -3 -9 32 -7 29 2 44 -1 40 -7 -7 -11 -3 -55 6
-70 10 -16 19 58 10 78 -10 19 -63 23 -88 6z"/>
<path d="M1485 1956 c-16 -12 -18 -19 -10 -42 17 -47 35 -41 35 10 0 25 -1 46
-3 46 -2 0 -12 -6 -22 -14z"/>
<path d="M1328 1949 c-13 -7 -15 -15 -7 -42 5 -17 9 -32 9 -32 0 0 -20 0 -44
0 -25 0 -40 2 -35 6 14 9 7 61 -9 67 -10 3 -12 -7 -10 -39 l3 -44 45 -3 c61
-3 72 6 68 56 -3 35 -5 39 -20 31z"/>
<path d="M1183 1933 c-12 -4 -19 -63 -9 -63 2 0 11 -3 20 -6 13 -5 16 2 16 35
0 40 -3 44 -27 34z"/>
<path d="M1720 1923 c0 -15 -2 -16 -10 -3 -8 13 -10 12 -10 -2 0 -23 19 -23
27 -2 6 15 8 15 20 -2 10 -13 13 -14 13 -3 0 12 2 12 10 -1 8 -13 10 -12 10 4
0 12 -5 16 -15 12 -8 -3 -15 -1 -15 4 0 6 -7 10 -15 10 -8 0 -15 -8 -15 -17z"/>
<path d="M1667 1912 c1 -8 3 -16 3 -18 0 -2 5 -4 10 -4 6 0 10 10 10 23 0 16
-3 18 -9 8 -5 -7 -11 -9 -13 -5 -3 5 -3 3 -1 -4z"/>
<path d="M1575 1841 c-19 -8 -18 -9 5 -12 36 -6 90 2 90 12 0 11 -67 11 -95 0z"/>
<path d="M1668 1828 c-14 -14 -16 -23 -8 -43 9 -23 8 -25 -23 -25 -36 0 -65
-14 -49 -24 14 -8 63 3 85 19 13 10 17 23 15 52 -3 36 -4 37 -20 21z"/>
<path d="M1303 1821 c-59 -10 -65 -21 -11 -21 28 0 50 6 58 15 7 8 9 14 4 14
-5 -1 -28 -5 -51 -8z"/>
<path d="M1505 1818 c-11 -38 -11 -67 1 -72 8 -3 14 -2 14 2 1 4 3 24 6 45 4
24 2 37 -5 37 -7 0 -13 -6 -16 -12z"/>
<path d="M1363 1809 c-15 -15 -17 -65 -3 -74 14 -9 22 16 18 55 -2 25 -5 29
-15 19z"/>
<path d="M1713 1783 c-19 -7 -16 -19 5 -20 10 -1 19 5 19 13 0 15 -4 16 -24 7z"/>
<path d="M1664 1726 c-8 -22 -1 -59 14 -64 8 -2 12 9 12 37 0 40 -15 55 -26
27z"/>
<path d="M1264 1711 c-25 -20 -22 -71 3 -71 11 0 14 9 11 35 -4 35 -4 35 34
35 21 0 38 5 38 10 0 17 -64 10 -86 -9z"/>
<path d="M1495 1722 c-5 -4 -10 -21 -10 -39 0 -17 2 -30 4 -27 2 2 10 -1 18
-7 10 -9 13 -3 13 35 0 45 -5 53 -25 38z"/>
<path d="M1598 1663 c-28 -4 -40 -23 -14 -23 29 0 76 13 76 21 0 9 -12 9 -62
2z"/>
<path d="M1530 1650 c0 -5 5 -10 10 -10 6 0 10 5 10 10 0 6 -4 10 -10 10 -5 0
-10 -4 -10 -10z"/>
<path d="M1278 1633 c-32 -8 -20 -26 13 -19 17 3 38 6 45 6 8 0 14 5 14 10 0
10 -40 12 -72 3z"/>
<path d="M1620 1600 l-35 -6 28 -8 c31 -9 77 -1 77 14 0 11 -17 11 -70 0z"/>
<path d="M1688 1574 c-15 -27 -15 -34 -3 -50 19 -26 27 -14 23 37 l-3 44 -17
-31z"/>
<path d="M1451 1581 c-9 -6 -10 -10 -2 -12 21 -7 91 3 91 12 0 11 -71 11 -89
0z"/>
<path d="M1540 1566 c-7 -14 -10 -34 -7 -45 4 -17 0 -21 -22 -21 -15 0 -36 -7
-47 -15 -18 -14 -18 -14 4 -15 13 0 39 7 58 16 31 15 34 20 34 60 0 24 -1 44
-3 44 -2 0 -9 -11 -17 -24z"/>
<path d="M1637 1510 c-57 -10 -58 -23 -2 -19 l50 4 0 -32 c0 -42 19 -48 23 -7
4 42 -22 62 -71 54z"/>
<path d="M1530 1470 c-12 -8 -13 -13 -3 -29 14 -22 12 -23 -54 -36 -49 -10
-40 -21 14 -16 55 4 73 19 73 60 0 33 -6 37 -30 21z"/>
<path d="M1130 1461 c0 -17 21 -24 33 -12 9 9 7 10 -7 5 -13 -5 -17 -4 -12 4
4 7 2 12 -3 12 -6 0 -11 -4 -11 -9z"/>
<path d="M1774 1456 c-3 -9 -10 -14 -14 -11 -4 3 -15 -6 -23 -19 -16 -23 -15
-23 8 -13 25 12 50 45 41 54 -3 3 -8 -2 -12 -11z"/>
<path d="M1600 1415 c-24 -15 -23 -15 24 -13 29 2 51 8 54 16 5 17 -47 15 -78
-3z"/>
<path d="M1159 1383 l-1 -28 -8 25 -8 25 -1 -27 c-1 -28 12 -35 37 -19 16 10
12 43 -5 49 -8 2 -13 -7 -14 -25z m18 -5 c-3 -8 -6 -5 -6 6 -1 11 2 17 5 13 3
-3 4 -12 1 -19z"/>
<path d="M1200 1383 c0 -22 2 -25 10 -13 9 13 10 13 11 0 0 -8 5 -4 9 10 l8
25 2 -25 c1 -23 2 -23 10 -5 13 30 12 31 -20 33 -27 2 -30 -1 -30 -25z"/>
<path d="M501 2363 c0 -45 2 -84 7 -86 4 -3 6 23 4 56 -5 104 -9 116 -11 30z"/>
<path d="M2251 2414 c0 -11 3 -14 6 -6 3 7 2 16 -1 19 -3 4 -6 -2 -5 -13z"/>
<path d="M1703 2375 c0 -8 4 -12 9 -9 5 3 6 10 3 15 -9 13 -12 11 -12 -6z"/>
<path d="M1641 2354 c0 -11 3 -14 6 -6 3 7 2 16 -1 19 -3 4 -6 -2 -5 -13z"/>
<path d="M1661 2354 c0 -11 3 -14 6 -6 3 7 2 16 -1 19 -3 4 -6 -2 -5 -13z"/>
<path d="M570 2335 c0 -8 5 -15 10 -15 6 0 10 7 10 15 0 8 -4 15 -10 15 -5 0
-10 -7 -10 -15z"/>
<path d="M581 2294 c0 -11 3 -14 6 -6 3 7 2 16 -1 19 -3 4 -6 -2 -5 -13z"/>
<path d="M512 2230 c0 -19 2 -27 5 -17 2 9 2 25 0 35 -3 9 -5 1 -5 -18z"/>
<path d="M580 2234 c0 -8 5 -12 10 -9 6 4 8 11 5 16 -9 14 -15 11 -15 -7z"/>
<path d="M1380 2236 c0 -3 9 -10 20 -16 11 -6 20 -8 20 -6 0 3 -9 10 -20 16
-11 6 -20 8 -20 6z"/>
<path d="M1207 2195 c3 -8 9 -12 14 -9 12 7 11 11 -5 17 -10 4 -13 1 -9 -8z"/>
<path d="M1126 2184 c-5 -14 -4 -15 9 -4 17 14 19 20 6 20 -5 0 -12 -7 -15
-16z"/>
<path d="M580 2171 c0 -25 6 -27 13 -6 4 8 2 17 -3 20 -6 4 -10 -3 -10 -14z"/>
<path d="M1165 2160 c-3 -6 1 -7 9 -4 18 7 21 14 7 14 -6 0 -13 -4 -16 -10z"/>
<path d="M1671 2154 c0 -11 3 -14 6 -6 3 7 2 16 -1 19 -3 4 -6 -2 -5 -13z"/>
<path d="M1651 2144 c0 -11 3 -14 6 -6 3 7 2 16 -1 19 -3 4 -6 -2 -5 -13z"/>
<path d="M517 2133 c-3 -5 -1 -17 4 -28 7 -17 8 -17 8 8 1 27 -4 34 -12 20z"/>
<path d="M591 2124 c0 -11 3 -14 6 -6 3 7 2 16 -1 19 -3 4 -6 -2 -5 -13z"/>
<path d="M593 2035 c0 -38 2 -53 4 -32 2 20 2 52 0 70 -2 17 -4 1 -4 -38z"/>
<path d="M2269 2073 c-2 -10 -1 -61 2 -113 l5 -95 2 113 c2 106 -1 134 -9 95z"/>
<path d="M522 2010 c0 -14 2 -19 5 -12 2 6 2 18 0 25 -3 6 -5 1 -5 -13z"/>
<path d="M593 1920 c0 -25 2 -35 4 -22 2 12 2 32 0 45 -2 12 -4 2 -4 -23z"/>
<path d="M532 1905 c0 -16 2 -22 5 -12 2 9 2 23 0 30 -3 6 -5 -1 -5 -18z"/>
<path d="M597 1853 c-4 -3 -7 -13 -7 -22 1 -13 3 -13 11 2 11 19 8 33 -4 20z"/>
<path d="M536 1795 c4 -8 8 -15 10 -15 2 0 4 7 4 15 0 8 -4 15 -10 15 -5 0 -7
-7 -4 -15z"/>
<path d="M601 1794 c0 -11 3 -14 6 -6 3 7 2 16 -1 19 -3 4 -6 -2 -5 -13z"/>
<path d="M2282 1690 c-1 -63 2 -120 6 -127 4 -6 6 32 4 85 -4 150 -9 168 -10
42z"/>
<path d="M540 1711 c0 -11 4 -22 9 -25 4 -3 6 6 3 19 -5 30 -12 33 -12 6z"/>
<path d="M602 1620 c-1 -39 2 -49 8 -34 4 11 5 36 0 55 -7 31 -8 29 -8 -21z"/>
<path d="M670 1632 c0 -10 111 -64 118 -57 7 6 10 4 -60 38 -32 15 -58 23 -58
19z"/>
<path d="M552 1605 c0 -16 2 -22 5 -12 2 9 2 23 0 30 -3 6 -5 -1 -5 -18z"/>
<path d="M561 1554 c0 -11 3 -14 6 -6 3 7 2 16 -1 19 -3 4 -6 -2 -5 -13z"/>
<path d="M2280 1530 c0 -5 5 -10 10 -10 6 0 10 5 10 10 0 6 -4 10 -10 10 -5 0
-10 -4 -10 -10z"/>
<path d="M557 1523 c-9 -9 -9 -43 1 -43 4 0 7 11 7 25 0 14 0 25 -1 25 0 0 -4
-3 -7 -7z"/>
<path d="M612 1505 c0 -16 2 -22 5 -12 2 9 2 23 0 30 -3 6 -5 -1 -5 -18z"/>
<path d="M2290 1485 c-1 -16 -1 -34 0 -40 1 -5 5 -50 10 -100 6 -82 7 -84 7
-25 1 78 -13 208 -17 165z"/>
<path d="M563 1380 c0 -30 2 -43 4 -27 2 15 2 39 0 55 -2 15 -4 2 -4 -28z"/>
<path d="M710 1380 c-39 -6 -35 -7 27 -6 40 0 73 4 73 9 0 8 -35 7 -100 -3z"/>
<path d="M622 1340 c0 -19 2 -27 5 -17 2 9 2 25 0 35 -3 9 -5 1 -5 -18z"/>
<path d="M571 1249 c1 -41 5 -87 9 -104 4 -16 5 15 2 70 -6 119 -12 139 -11
34z"/>
<path d="M1820 1255 c0 -14 4 -25 10 -25 5 0 7 7 3 16 -5 14 -3 15 15 5 27
-14 27 -14 29 9 1 11 -3 20 -8 20 -6 0 -7 -4 -4 -10 3 -5 2 -10 -4 -10 -5 0
-13 5 -16 10 -11 18 -25 10 -25 -15z"/>
<path d="M1722 1257 c-10 -11 -9 -17 4 -28 18 -15 49 -1 49 22 0 19 -39 23
-53 6z m38 -12 c0 -8 -7 -15 -15 -15 -8 0 -15 7 -15 15 0 8 7 15 15 15 8 0 15
-7 15 -15z"/>
<path d="M1543 1253 c-7 -3 -13 -16 -13 -30 0 -32 33 -28 35 5 2 25 -4 32 -22
25z"/>
<path d="M1614 1245 c-8 -20 4 -35 26 -35 20 0 36 17 25 28 -3 3 -10 0 -15 -8
-7 -12 -12 -12 -21 -3 -10 10 -9 13 2 17 8 2 21 7 29 9 8 3 2 6 -13 6 -16 1
-30 -5 -33 -14z"/>
<path d="M1285 1229 c7 -20 6 -22 -7 -12 -8 7 -18 10 -21 6 -12 -11 -8 -23 8
-23 9 0 20 -12 25 -26 13 -32 13 -31 -6 -38 -11 -4 -14 -1 -10 12 3 9 1 24 -4
32 -5 8 -10 11 -10 5 0 -5 -5 -3 -10 5 -7 12 -11 8 -16 -18 -9 -45 -22 -49
-51 -18 -26 28 -25 48 2 26 9 -8 15 -9 15 -2 0 6 -8 15 -17 21 -10 5 -15 13
-11 17 12 11 36 -15 41 -44 l4 -27 2 28 c0 15 5 27 10 27 5 0 11 10 14 21 5
19 3 21 -25 15 -17 -3 -41 -6 -54 -6 -21 0 -23 -3 -19 -51 2 -28 7 -54 11 -58
4 -3 4 4 1 17 -3 12 -1 22 4 22 5 0 9 -14 9 -31 0 -17 -4 -28 -10 -24 -6 4
-10 -5 -10 -21 0 -26 1 -26 43 -18 23 4 59 8 80 8 42 0 46 6 17 24 -13 8 -26
9 -37 3 -54 -27 -74 -34 -80 -26 -5 4 -2 10 6 13 7 2 21 12 30 21 10 10 23 15
30 13 8 -3 10 4 5 22 -8 33 3 34 16 1 5 -14 16 -25 24 -25 8 0 17 -6 20 -12 3
-7 4 7 1 32 -3 25 -5 57 -5 72 0 15 -5 30 -11 34 -8 4 -9 -1 -4 -17z"/>
<path d="M2312 1157 c12 -140 17 -155 11 -32 -3 61 -8 113 -12 117 -4 4 -3
-34 1 -85z"/>
<path d="M1430 1221 c0 -11 5 -23 10 -26 6 -4 10 5 10 19 0 14 -4 26 -10 26
-5 0 -10 -9 -10 -19z"/>
<path d="M1460 1220 c0 -11 4 -20 8 -20 4 0 8 9 8 20 0 11 -4 20 -8 20 -4 0
-8 -9 -8 -20z"/>
<path d="M1325 1220 c-4 -7 -1 -19 8 -27 12 -12 19 -13 36 -3 12 6 20 17 18
23 -5 16 -53 21 -62 7z m43 -11 c-2 -6 -8 -10 -13 -10 -5 0 -11 4 -13 10 -2 6
4 11 13 11 9 0 15 -5 13 -11z"/>
<path d="M630 1159 c0 -22 4 -38 8 -35 8 5 4 76 -4 76 -2 0 -4 -18 -4 -41z"/>
<path d="M792 1187 c-6 -7 -31 -23 -56 -36 -25 -12 -48 -26 -51 -32 -10 -15 1
-11 55 21 28 17 55 30 60 30 6 0 10 7 10 15 0 18 -4 19 -18 2z"/>
<path d="M1841 1191 c-21 -13 -5 -41 24 -41 14 0 25 5 25 11 0 6 -9 8 -20 4
-14 -4 -20 -2 -20 9 0 8 10 17 23 19 19 4 19 4 2 5 -11 1 -26 -2 -34 -7z"/>
<path d="M1707 1183 c-9 -9 -9 -43 1 -43 4 0 8 11 8 25 2 27 1 29 -9 18z"/>
<path d="M1740 1165 c0 -28 15 -34 24 -9 3 8 2 12 -4 9 -6 -3 -10 -2 -10 4 0
5 8 12 18 14 13 4 11 5 -5 6 -18 1 -23 -4 -23 -24z"/>
<path d="M1797 1170 c3 -11 7 -20 9 -20 2 0 4 9 4 20 0 11 -4 20 -9 20 -5 0
-7 -9 -4 -20z"/>
<path d="M1630 1169 c0 -5 5 -7 12 -3 8 5 9 0 6 -14 -4 -15 -2 -22 8 -22 8 0
11 6 7 16 -3 9 0 20 8 25 10 6 6 9 -13 9 -16 0 -28 -5 -28 -11z"/>
<path d="M1507 1163 c-15 -15 -7 -43 13 -43 11 0 20 7 20 15 0 8 -6 15 -12 15
-9 0 -8 4 2 10 13 8 13 10 -1 10 -9 0 -19 -3 -22 -7z"/>
<path d="M1561 1143 c0 -24 2 -25 8 -9 5 14 10 16 15 8 12 -19 26 -14 26 11 0
16 -3 18 -9 8 -6 -9 -11 -10 -15 -2 -13 20 -26 11 -25 -16z"/>
<path d="M1403 1153 c-7 -2 -13 -13 -13 -24 0 -14 7 -19 28 -18 26 0 27 0 4
10 -13 5 -20 14 -17 20 4 6 13 8 21 5 8 -3 14 -1 14 4 0 11 -16 12 -37 3z"/>
<path d="M1460 1135 c0 -14 5 -25 10 -25 6 0 10 11 10 25 0 14 -4 25 -10 25
-5 0 -10 -11 -10 -25z"/>
<path d="M1337 1143 c-12 -12 -7 -23 11 -24 15 0 14 -2 -3 -10 -19 -8 -19 -9
-1 -6 25 3 33 27 9 28 -16 0 -16 1 2 9 15 6 16 9 4 9 -9 1 -19 -2 -22 -6z"/>
<path d="M1525 1084 c-176 -18 -333 -33 -348 -34 -16 0 -26 -4 -23 -8 3 -5 36
-5 73 -1 37 4 202 20 366 35 163 16 297 32 297 36 0 11 2 11 -365 -28z"/>
<path d="M583 1065 c0 -27 2 -38 4 -22 2 15 2 37 0 50 -2 12 -4 0 -4 -28z"/>
<path d="M641 1024 c0 -11 3 -14 6 -6 3 7 2 16 -1 19 -3 4 -6 -2 -5 -13z"/>
<path d="M593 945 c0 -38 2 -53 4 -32 2 20 2 52 0 70 -2 17 -4 1 -4 -38z"/>
<path d="M1502 998 c-20 -20 -15 -66 9 -78 16 -9 26 -8 45 5 41 27 27 85 -21
85 -12 0 -26 -5 -33 -12z m58 -30 c0 -12 -26 -38 -38 -38 -19 0 -22 44 -5 57
17 13 43 1 43 -19z"/>
<path d="M2332 913 c-1 -50 1 -94 6 -96 4 -3 6 25 4 61 -5 116 -9 130 -10 35z"/>
<path d="M652 915 c0 -27 3 -75 8 -105 l7 -55 1 50 c0 28 -3 75 -8 105 l-7 55
-1 -50z"/>
<path d="M1594 847 c-8 -21 1 -47 16 -47 19 0 23 31 7 48 -15 14 -17 14 -23
-1z m13 -29 c-3 -8 -6 -5 -6 6 -1 11 2 17 5 13 3 -3 4 -12 1 -19z"/>
<path d="M1640 833 c0 -22 2 -25 10 -13 6 10 10 11 10 3 0 -7 4 -13 8 -13 16
0 5 45 -11 48 -13 3 -17 -4 -17 -25z"/>
<path d="M1448 819 c3 -19 10 -29 21 -29 14 0 14 2 1 10 -13 9 -13 10 0 10 12
0 13 2 1 9 -11 7 -11 9 0 13 9 3 6 6 -7 10 -17 4 -20 1 -16 -23z"/>
<path d="M1547 843 c-4 -3 -2 -12 4 -20 9 -10 8 -13 0 -13 -7 0 -9 -5 -6 -10
5 -8 12 -7 22 1 12 11 12 14 -3 22 -13 8 -14 11 -3 18 8 5 9 9 3 9 -6 0 -14
-3 -17 -7z"/>
<path d="M604 745 c3 -55 9 -156 12 -225 4 -69 10 -132 15 -140 4 -9 6 1 4 25
-3 22 -10 128 -16 235 -6 107 -14 197 -17 200 -2 3 -2 -40 2 -95z"/>
<path d="M1405 829 c-10 -14 -1 -21 19 -13 9 3 13 10 10 15 -7 12 -21 11 -29
-2z"/>
<path d="M1501 811 c0 -23 1 -24 8 -6 8 20 8 20 13 0 5 -16 6 -15 7 6 1 17 -4
26 -14 26 -10 0 -15 -10 -14 -26z"/>
<path d="M1411 801 c-9 -6 -10 -11 -2 -15 13 -8 31 1 31 15 0 11 -11 11 -29 0z"/>
<path d="M2343 730 c0 -25 2 -35 4 -22 2 12 2 32 0 45 -2 12 -4 2 -4 -23z"/>
<path d="M672 700 c0 -14 2 -19 5 -12 2 6 2 18 0 25 -3 6 -5 1 -5 -13z"/>
<path d="M671 644 c0 -11 3 -14 6 -6 3 7 2 16 -1 19 -3 4 -6 -2 -5 -13z"/>
<path d="M1822 583 c-12 -2 -20 -8 -18 -12 6 -9 -186 -6 -328 4 -66 5 -116 4
-150 -4 -52 -12 -94 -36 -84 -47 9 -8 78 18 72 28 -3 4 2 5 10 2 8 -3 21 -2
27 2 18 10 141 8 197 -4 67 -15 172 -23 147 -11 -14 7 -7 8 24 4 44 -6 141 20
141 37 0 4 -3 7 -7 7 -5 -1 -18 -4 -31 -6z"/>
<path d="M683 470 c4 -52 7 -117 7 -145 1 -42 3 -46 11 -27 5 13 7 27 5 31 -2
3 -7 56 -11 116 -4 61 -9 112 -12 115 -3 3 -3 -38 0 -90z"/>
<path d="M2363 475 c0 -27 2 -38 4 -22 2 15 2 37 0 50 -2 12 -4 0 -4 -28z"/>
<path d="M1827 480 c-15 -12 -32 -17 -43 -13 -10 3 -15 2 -12 -3 8 -12 -159
-9 -208 5 -86 24 -288 4 -310 -30 -12 -20 4 -20 62 0 83 27 132 31 200 15 99
-24 219 -24 292 -1 34 11 62 23 62 28 0 18 -19 18 -43 -1z"/>
<path d="M2367 379 c3 -24 7 -46 9 -48 9 -10 3 65 -5 78 -6 10 -8 -1 -4 -30z"/>
<path d="M1832 378 c-15 -15 -32 -17 -157 -18 -49 -1 -106 3 -125 9 -73 23
-223 8 -277 -27 -42 -27 -14 -30 52 -6 77 28 146 30 238 9 84 -19 212 -13 273
14 24 11 44 22 44 25 0 11 -36 6 -48 -6z"/>
<path d="M701 193 c-1 -23 3 -44 7 -47 4 -2 6 12 4 32 -5 56 -10 62 -11 15z"/>
</g>
</svg>
