<?xml version="1.0" encoding="UTF-8" standalone="no"?>
<svg
   xmlns:dc="http://purl.org/dc/elements/1.1/"
   xmlns:cc="http://creativecommons.org/ns#"
   xmlns:rdf="http://www.w3.org/1999/02/22-rdf-syntax-ns#"
   xmlns:svg="http://www.w3.org/2000/svg"
   xmlns="http://www.w3.org/2000/svg"
   viewBox="0 0 221.78383 217.70468"
   height="217.70468"
   width="221.78383"
   version="1.1"
   id="svg2">
  <metadata
     id="metadata8">
    <rdf:RDF>
      <cc:Work
         rdf:about="">
        <dc:format>image/svg+xml</dc:format>
        <dc:type
           rdf:resource="http://purl.org/dc/dcmitype/StillImage" />
        <dc:title></dc:title>
      </cc:Work>
    </rdf:RDF>
  </metadata>
  <defs
     id="defs6" />
  <text
     transform="scale(0.89223672,1.1207788)"
     id="text4140"
     y="133.89188"
     x="67.580353"
     style="font-style:normal;font-weight:normal;font-size:54.77988052px;line-height:125%;font-family:sans-serif;letter-spacing:0px;word-spacing:0px;fill:#000000;fill-opacity:1;stroke:none;stroke-width:1px;stroke-linecap:butt;stroke-linejoin:miter;stroke-opacity:1"
     xml:space="preserve"><tspan
       style="font-size:82.16982269px"
       y="133.89188"
       x="67.580353"
       id="tspan4142">UV</tspan></text>
  <ellipse
     ry="78.584663"
     rx="79.034096"
     cy="112.65649"
     cx="110.49009"
     id="path4144"
     style="fill:none;fill-opacity:1;stroke:#000000;stroke-width:6;stroke-linejoin:round;stroke-miterlimit:4;stroke-dasharray:none;stroke-opacity:1" />
  <path
     id="path4148"
     d="m 85.274841,37.741504 27.864799,-33.7074205 26.06708,34.6062845 41.7972,-8.089781 -1.3483,41.797206 38.20174,22.921039 -28.31423,30.561398 14.83127,42.69606 -43.59494,4.94376 -13.9324,40.4489 -35.95458,-22.47161 -38.201739,21.57275 -13.033543,-40.44891 -43.59493,-8.08978 16.629,-39.1006 -28.76367,-33.707418 39.10061,-20.673889 0,-43.145499 z"
     style="fill:none;fill-rule:evenodd;stroke:#000000;stroke-width:5;stroke-linecap:butt;stroke-linejoin:miter;stroke-miterlimit:4;stroke-dasharray:none;stroke-opacity:1" />
  <path
     id="path4152"
     d="m 29.777138,134.33007 c -3.900653,9.1255 -8.090854,18.18419 -11.349043,27.5681 -0.246742,3.31214 4.241396,2.68413 6.360296,3.4365 8.158154,1.49882 16.289248,3.2627 24.482872,4.5023 2.981535,-0.63453 1.553058,-4.03019 0.04652,-5.43269 -7.250541,-8.66478 -12.709074,-18.80264 -16.081248,-29.50803 -0.711405,-1.42132 -2.328801,-1.68823 -3.4594,-0.56618 z"
     style="fill:#000000;fill-opacity:1;stroke:#000000;stroke-width:2.24716139;stroke-linejoin:round;stroke-miterlimit:4;stroke-dasharray:none;stroke-opacity:1" />
  <path
     id="path4154"
     d="m 64.850411,179.59193 c -2.717455,1.89068 0.0642,5.22127 0.38724,7.68958 2.49163,7.44877 4.45882,15.14309 7.39707,22.40483 2.52869,2.3639 5.54744,-1.14001 7.92543,-2.00926 7.03912,-4.10648 14.40485,-7.76278 21.136679,-12.33922 1.57501,-2.47382 -1.56359,-3.77428 -3.570879,-3.81785 -11.15042,-1.83567 -22.00807,-6.09221 -31.75168,-11.92983 -0.50502,-0.25639 -1.00262,-0.0401 -1.52386,0.002 z"
     style="fill:#000000;fill-opacity:1;stroke:#000000;stroke-width:2.24716139;stroke-linejoin:round;stroke-miterlimit:4;stroke-dasharray:none;stroke-opacity:1" />
  <path
     id="path4156"
     d="m 154.37258,180.21166 c -6.42661,2.65244 -12.45954,6.32608 -19.19304,8.2829 -4.94604,1.8665 -10.23899,2.37668 -15.34653,3.8149 -2.50885,1.93463 0.41435,4.20644 2.23625,5.09004 7.50874,4.74094 14.86954,9.83854 22.79151,13.84932 3.28674,0.0664 3.06251,-4.24993 4.28596,-6.41993 2.56341,-7.39541 5.25086,-14.75619 7.57484,-22.22962 0.18198,-1.39582 -0.95262,-2.58795 -2.34899,-2.38761 z"
     style="fill:#000000;fill-opacity:1;stroke:#000000;stroke-width:2.24716139;stroke-linejoin:round;stroke-miterlimit:4;stroke-dasharray:none;stroke-opacity:1" />
  <path
     id="path4158"
     d="m 189.7127,133.5102 c -3.04712,1.09705 -2.82023,5.24967 -4.23396,7.70134 -4.04859,10.05434 -9.99176,19.31256 -17.54946,27.2745 -1.70816,2.48156 1.69689,4.13469 3.75873,3.03981 9.65449,-1.31601 19.49099,-1.79207 29.06475,-3.60248 2.7294,-2.0766 0.17205,-5.73584 -0.32391,-8.31888 -2.99545,-8.49364 -5.62908,-17.19102 -9.01849,-25.49914 -0.53056,-0.44097 -1.00215,-0.63736 -1.69766,-0.59515 z"
     style="fill:#000000;fill-opacity:1;stroke:#000000;stroke-width:2.24716139;stroke-linejoin:round;stroke-miterlimit:4;stroke-dasharray:none;stroke-opacity:1" />
  <path
     id="path4160"
     d="m 184.81635,77.835903 c -2.18146,2.27627 0.69443,5.19377 1.15735,7.643439 3.97633,10.40472 4.87388,21.821898 4.59398,32.942398 0.4433,3.07491 4.06242,1.81094 4.99622,-0.27549 6.46762,-7.13231 13.4446,-13.89167 19.34949,-21.487738 0.5807,-3.16458 -3.61627,-3.80324 -5.44601,-5.46792 -7.71977,-4.55892 -15.22538,-9.607289 -23.20671,-13.656229 -0.46423,-0.0172 -0.97696,0.247 -1.44432,0.30154 z"
     style="fill:#000000;fill-opacity:1;stroke:#000000;stroke-width:2.24716139;stroke-linejoin:round;stroke-miterlimit:4;stroke-dasharray:none;stroke-opacity:1" />
  <path
     id="path4162"
     d="m 177.83962,32.147427 c -9.96769,1.686075 -19.97033,3.409771 -29.81088,5.694272 -2.69924,1.862383 0.31781,4.521681 2.22028,5.4207 9.94978,5.862105 18.43879,13.463526 25.43648,22.538904 2.11565,1.64963 4.05247,-1.060661 3.50631,-3.133271 0.34641,-9.583994 0.77621,-19.175584 0.80631,-28.764133 -0.32369,-1.022112 -1.02849,-1.79767 -2.1585,-1.756472 z"
     style="fill:#000000;fill-opacity:1;stroke:#000000;stroke-width:2.24716139;stroke-linejoin:round;stroke-miterlimit:4;stroke-dasharray:none;stroke-opacity:1" />
  <path
     id="path4164"
     d="m 112.18388,7.0432995 c -4.78273,4.5810945 -8.66048,10.1403375 -13.042559,15.1371995 -2.52329,3.240081 -5.43757,6.229178 -7.66819,9.670232 -0.53211,2.938004 2.84728,2.902239 4.74713,2.288418 11.517179,-2.096146 23.401489,-1.3846 34.759019,1.290362 2.7393,0.181772 2.70905,-3.194746 1.09637,-4.572446 -5.71528,-8.011997 -11.4537,-16.068184 -17.86845,-23.5293595 -0.58265,-0.548951 -1.31925,-0.24926 -2.02332,-0.284406 z"
     style="fill:#000000;fill-opacity:1;stroke:#000000;stroke-width:2.24716139;stroke-linejoin:round;stroke-miterlimit:4;stroke-dasharray:none;stroke-opacity:1" />
  <path
     id="path4166"
     d="m 45.275529,29.528957 c -2.572928,1.795719 -1.243243,5.576124 -1.684936,8.238886 0.01846,8.309107 -0.234125,16.691982 0.113025,24.954119 0.927938,3.024791 4.254633,0.73365 5.118357,-1.159718 7.555074,-8.925329 16.955286,-16.043133 27.377476,-21.287291 2.19448,-1.543757 0.18944,-4.316822 -2.03534,-4.228337 -9.24914,-2.40236 -18.596265,-4.414009 -27.879993,-6.669518 -0.336196,0.05062 -0.672392,0.10124 -1.008589,0.151859 z"
     style="fill:#000000;fill-opacity:1;stroke:#000000;stroke-width:2.24716139;stroke-linejoin:round;stroke-miterlimit:4;stroke-dasharray:none;stroke-opacity:1" />
  <path
     id="path4168"
     d="m 34.910497,76.332243 c -9.378006,4.72047 -18.77625,9.591739 -27.87942,14.743679 -2.162254,2.38474 1.697328,4.49558 2.878764,6.40503 5.688342,6.569848 11.20384,13.294418 16.997777,19.769808 2.089638,1.51565 3.901535,-0.97146 3.435699,-2.981 -0.214655,-11.82997 2.139799,-23.522218 6.806915,-34.416717 1.005399,-1.64461 -0.116327,-4.08415 -2.239735,-3.5208 z"
     style="fill:#000000;fill-opacity:1;stroke:#000000;stroke-width:2.24716139;stroke-linejoin:round;stroke-miterlimit:4;stroke-dasharray:none;stroke-opacity:1" />
</svg>
