<?xml version="1.0" encoding="UTF-8" standalone="no"?>
<svg
   xmlns:dc="http://purl.org/dc/elements/1.1/"
   xmlns:cc="http://creativecommons.org/ns#"
   xmlns:rdf="http://www.w3.org/1999/02/22-rdf-syntax-ns#"
   xmlns:svg="http://www.w3.org/2000/svg"
   xmlns="http://www.w3.org/2000/svg"
   viewBox="0 0 1000 1000"
   height="1000"
   width="1000"
   version="1.1"
   id="svg4147">
  <metadata
     id="metadata4153">
    <rdf:RDF>
      <cc:Work
         rdf:about="">
        <dc:format>image/svg+xml</dc:format>
        <dc:type
           rdf:resource="http://purl.org/dc/dcmitype/StillImage" />
        <dc:title></dc:title>
      </cc:Work>
    </rdf:RDF>
  </metadata>
  <defs
     id="defs4151" />
  <path
     id="path4697"
     d="m 356.26356,874.69157 41.41244,-82.8 27.6,0 27.6,0 -41.41244,82.8 -41.41244,82.8 -27.6,0 -27.6,0 41.41244,-82.8 z m 110.4,0 41.41244,-82.8 27.6,0 27.6,0 -41.41244,82.8 -41.41244,82.8 -27.6,0 -27.6,0 41.41244,-82.8 z m 110.4,0 41.41244,-82.8 27.6,0 27.6,0 -41.41244,82.8 -41.41244,82.8 -27.6,0 -27.6,0 41.41244,-82.8 z m 110.4,0 41.41244,-82.8 27.6,0 27.6,0 -41.41244,82.8 -41.41244,82.8 -27.6,0 -27.6,0 41.41244,-82.8 z M 269.7207,729.86712 C 173.93858,704.59923 133.39224,589.7964 192.59087,511.48196 l 11.15688,-14.75956 -14.49897,-17.95884 c -76.71154,-95.01712 -44.28957,-232.97011 66.68443,-283.73711 77.77685,-35.58038 173.94003,-9.8883 223.80905,59.79542 l 4.92391,6.88039 14.57369,-13.90166 C 642.83551,110.82665 874.22804,195.95312 894.89619,393.35771 l 2.70294,25.81616 14.79817,8.6543 c 120.8025,70.64788 96.4485,254.30229 -39.78374,300.01141 l -16.1,5.40194 -285.2,0.47506 C 298.66689,734.17074 285.392,734.0013 269.7207,729.86712 Z m 579.20465,-50.90954 c 114.40166,-23.78414 117.00701,-193.57322 3.36686,-219.41434 -11.63186,-2.64502 -11.8672,-2.86423 -11.32771,-10.55143 16.03464,-228.47425 -282.9879,-305.97027 -348.93038,-90.43037 -3.05911,9.99905 -5.7707,18.50307 -6.02572,18.89784 -0.25502,0.39475 -8.29081,-0.899 -17.85729,-2.875 C 389.2379,358.28429 310.98988,414.87437 304.0827,493.24082 l -1.34847,15.2993 -11.89008,1.48557 c -90.86672,11.35305 -96.75656,147.92728 -7.30043,169.28329 12.11765,2.89287 551.38889,2.55769 565.38163,-0.3514 z M 258.37287,452.06652 c 23.77657,-75.78135 91.0923,-127.92074 172.56647,-133.66128 24.22325,-1.70674 24.40107,-2.07412 11.40018,-23.55359 -65.2062,-107.73064 -229.90685,-68.50605 -241.62197,57.54391 -4.89491,52.66721 45.22048,139.30361 57.65532,99.67096 z M 50.785143,524.73872 C 36.468054,499.71628 33.445624,504.61547 79.42886,478.30896 c 33.68087,-19.26845 39.93471,-22.08487 39.93471,-17.98455 0,1.06309 5.17774,10.54785 11.50607,21.07725 6.32836,10.52938 11.24461,19.3556 10.925,19.6138 -1.89294,1.52934 -73.821988,42.92394 -76.116353,43.80435 -1.641924,0.63006 -7.772321,-7.63581 -14.893144,-20.08109 z m -41.8215679,-162.9472 0,-25.3 44.8500009,0 44.85,0 0,25.3 0,25.3 -44.85,0 -44.8500009,0 0,-25.3 z M 77.963576,245.41078 c -20.8725,-12.10729 -38.321016,-22.38187 -38.774484,-22.8324 -1.48189,-1.4723 22.95743,-42.48686 25.316632,-42.48686 2.353498,0 72.900566,40.28859 76.282966,43.56427 1.03132,0.99878 -2.16786,8.07126 -7.1093,15.71662 -4.94143,7.64536 -10.30956,17.09981 -11.92916,21.00988 -3.7797,9.12502 -0.0421,10.40301 -43.786654,-14.97151 z M 464.26498,172.18791 c -1.84329,-1.79892 -11.36359,-7.56902 -21.15625,-12.82248 -16.59751,-8.90405 -17.62812,-9.88983 -15.19897,-14.53781 7.18685,-13.7515 39.85055,-69.773007 42.19876,-72.375112 2.23252,-2.473926 37.24731,14.386086 44.47791,21.416588 0.76431,0.743176 -42.32433,76.583094 -45.38457,79.880994 -0.872,0.93972 -3.09359,0.23672 -4.93688,-1.56218 z M 185.37384,159.96652 c -17.41429,-29.06865 -36.11028,-62.557011 -36.11028,-64.680969 0,-2.314306 41.04621,-26.745297 42.45326,-25.26849 1.58631,1.66497 42.8485,73.423999 44.1103,76.712169 0.84603,2.20478 -0.74863,4.17878 -4.54041,5.62042 -3.21446,1.22213 -12.74043,6.41151 -21.16888,11.53195 -8.42842,5.12047 -15.66118,9.30992 -16.07281,9.30992 -0.41163,0 -4.31365,-5.95125 -8.67118,-13.225 z m 120.29131,-75.900001 -10e-4,-46.574999 26.45,0 26.45,0 5.7e-4,46.574999 6e-4,46.575001 -26.44899,0 -26.44901,0 -0.001,-46.575001 z"
     style="fill:#000000" />
</svg>
