<?xml version="1.0" standalone="no"?>
<!DOCTYPE svg PUBLIC "-//W3C//DTD SVG 20010904//EN"
 "http://www.w3.org/TR/2001/REC-SVG-20010904/DTD/svg10.dtd">
<svg version="1.0" xmlns="http://www.w3.org/2000/svg"
 width="300.000000pt" height="300.000000pt" viewBox="0 0 300.000000 300.000000"
 preserveAspectRatio="xMidYMid meet">
<metadata>
Created by potrace 1.10, written by Peter Selinger 2001-2011
</metadata>
<g transform="translate(0.000000,300.000000) scale(0.100000,-0.100000)"
fill="#000000" stroke="none">
<path d="M286 2674 c-74 -20 -108 -39 -151 -85 -41 -45 -84 -137 -85 -181 0
-23 4 -26 27 -24 25 3 29 9 36 49 15 93 106 182 198 194 33 5 39 9 39 29 0 31
-7 32 -64 18z m-61 -54 c-16 -11 -34 -20 -40 -20 -5 0 4 9 20 20 17 11 35 20
40 20 6 0 -3 -9 -20 -20z m-50 -38 c-6 -4 -23 -22 -38 -40 -15 -19 -27 -29
-27 -24 0 16 50 72 63 72 8 0 8 -3 2 -8z"/>
<path d="M390 2571 c0 -36 3 -40 34 -51 46 -15 79 -47 99 -98 21 -52 21 -82 2
-129 -29 -68 -79 -103 -149 -103 -56 0 -106 23 -132 61 -10 16 -22 29 -26 29
-5 0 -8 16 -8 35 0 35 -1 35 -43 35 l-43 0 4 -35 c2 -19 8 -35 13 -35 5 0 9
-7 9 -16 0 -24 56 -90 98 -116 31 -19 51 -23 122 -23 71 0 92 4 125 23 126 72
153 263 54 375 -24 28 -53 48 -81 57 -24 7 -47 17 -52 22 -19 16 -26 7 -26
-31z m98 -29 c18 -9 45 -35 60 -56 23 -33 28 -52 30 -120 4 -78 3 -83 -30
-130 -43 -64 -92 -89 -172 -90 -102 -1 -189 60 -210 147 -10 42 10 32 34 -17
32 -67 109 -116 182 -116 37 0 118 42 139 72 69 99 45 230 -54 293 -71 46 -58
56 21 17z"/>
<path d="M271 2564 c-19 -8 -47 -29 -62 -46 -33 -36 -64 -117 -50 -131 17 -17
38 1 45 36 8 40 58 95 96 103 45 10 50 13 50 34 0 24 -29 26 -79 4z"/>
<path d="M829 2491 c-43 -14 -77 -41 -101 -80 -20 -31 -24 -54 -28 -159 l-5
-122 38 0 37 0 0 110 c0 60 5 120 11 133 18 40 64 60 119 54 48 -6 49 -5 55
24 4 17 5 32 2 35 -9 9 -103 13 -128 5z m21 -28 c0 -5 -15 -15 -32 -24 -55
-26 -78 -86 -78 -196 0 -52 -4 -92 -8 -89 -16 10 -2 209 17 241 23 41 102 93
101 68z m80 -3 c0 -5 -14 -7 -32 -3 -46 8 -48 13 -5 13 21 0 37 -4 37 -10z"/>
<path d="M1120 2488 c-75 -21 -121 -90 -122 -182 0 -68 18 -111 62 -149 54
-46 149 -51 228 -11 29 14 52 29 52 32 0 4 -12 15 -26 25 -22 16 -28 17 -42 5
-37 -30 -122 -52 -122 -30 0 4 -14 13 -31 21 -27 12 -40 31 -52 75 -1 5 59 8
141 7 l142 -2 0 28 c0 82 -54 165 -118 183 -44 12 -65 12 -112 -2z m45 -27
c-22 -4 -50 -13 -61 -21 -45 -28 -71 -104 -39 -116 12 -5 11 -9 -7 -23 -19
-16 -20 -21 -9 -54 12 -36 65 -87 89 -87 7 0 12 -4 12 -10 0 -14 -50 7 -79 33
-103 95 -36 291 99 286 l35 -2 -40 -6z m109 -28 c14 -13 26 -28 26 -35 0 -7
-15 2 -33 20 -18 18 -38 32 -45 32 -7 0 -12 4 -12 10 0 13 34 -1 64 -27z m-38
-15 c12 -5 28 -25 37 -44 l17 -34 -110 0 c-123 0 -130 5 -85 59 34 40 85 47
141 19z m82 -79 c-2 -14 -11 -25 -23 -27 -16 -3 -18 -1 -7 9 6 7 12 24 12 38
0 18 3 22 11 14 6 -6 9 -21 7 -34z m-42 -175 c-11 -8 -27 -14 -35 -14 -9 0 -3
8 14 19 34 21 50 17 21 -5z m-73 -21 c-7 -2 -21 -2 -30 0 -10 3 -4 5 12 5 17
0 24 -2 18 -5z"/>
<path d="M1552 2490 c-31 -7 -54 -22 -93 -61 -84 -82 -41 -268 70 -299 71 -19
155 -7 192 29 26 25 49 77 56 126 l6 46 -88 -3 -88 -3 -1 -27 c-2 -27 0 -28
52 -28 50 0 53 -1 47 -21 -13 -39 -68 -79 -110 -79 -14 0 -25 3 -25 8 0 4 -13
13 -29 20 -69 31 -75 152 -10 206 43 37 113 39 160 5 26 -18 26 -18 48 4 l21
23 -28 20 c-54 40 -110 51 -180 34z m135 -35 c20 -8 34 -18 31 -20 -3 -3 -21
2 -41 10 -124 51 -238 -45 -213 -179 7 -35 69 -106 93 -106 6 0 14 -4 18 -9
11 -18 -58 8 -83 31 -36 34 -52 72 -52 123 0 69 39 130 100 154 38 15 106 13
147 -4z m58 -187 c-11 -51 -21 -71 -42 -91 -22 -19 -87 -42 -78 -26 4 5 12 9
20 9 24 0 73 50 80 81 5 23 2 34 -12 44 -17 13 -16 14 10 15 27 0 28 -2 22
-32z"/>
<path d="M1974 2489 c-18 -5 -50 -27 -72 -49 -121 -122 -40 -320 131 -320 56
0 87 11 126 46 110 98 66 288 -76 323 -48 13 -66 13 -109 0z m50 -28 c-81 -20
-134 -82 -134 -159 0 -47 31 -97 80 -130 44 -30 96 -25 145 12 99 76 82 192
-41 274 -17 11 -17 12 6 6 95 -25 144 -138 99 -231 -23 -47 -47 -66 -107 -84
-78 -23 -168 23 -193 98 -15 46 -3 121 26 159 28 37 79 64 120 63 l30 -1 -31
-7z m87 -59 c36 -32 50 -102 29 -151 -12 -31 -78 -81 -105 -81 -22 0 -92 46
-105 69 -13 26 -13 104 1 134 28 61 127 77 180 29z"/>
<path d="M2413 2489 c-43 -12 -101 -74 -108 -113 -2 -17 -6 -79 -7 -139 l-3
-107 38 0 37 0 0 121 c0 120 0 121 29 150 53 53 144 34 171 -36 5 -14 10 -73
10 -130 l0 -103 35 -4 35 -4 0 118 c0 79 -5 130 -14 151 -35 83 -129 123 -223
96z m154 -47 c42 -30 62 -95 62 -199 -1 -119 -16 -111 -21 10 -7 145 -33 189
-123 202 -30 4 -48 1 -72 -14 -56 -35 -67 -63 -71 -178 -3 -61 -8 -103 -14
-103 -7 0 -9 39 -6 110 6 121 16 146 71 181 43 27 130 22 174 -9z"/>
<path d="M281 2461 c-17 -16 -31 -34 -31 -39 0 -6 -3 -17 -6 -26 -11 -28 24
-18 38 11 7 15 26 34 41 41 15 7 27 20 27 28 0 23 -36 16 -69 -15z"/>
<path d="M143 1925 c-24 -27 -15 -60 18 -76 35 -16 39 -29 13 -44 -12 -7 -18
-6 -21 3 -7 19 -23 14 -23 -8 0 -16 7 -20 33 -20 34 0 67 24 67 50 0 15 -25
36 -58 50 -30 13 -19 30 19 30 20 0 29 4 27 13 -6 17 -61 20 -75 2z"/>
<path d="M437 1920 c-36 -28 -38 -86 -4 -118 29 -27 97 -31 97 -6 0 12 -6 15
-23 10 -33 -8 -67 19 -67 53 0 36 17 51 58 51 22 0 32 4 30 13 -8 21 -62 20
-91 -3z"/>
<path d="M700 1861 c0 -65 3 -81 15 -81 12 0 15 14 15 70 0 39 0 73 1 78 0 4
-7 8 -15 10 -13 3 -16 -10 -16 -77z"/>
<path d="M930 1858 l0 -78 45 0 c33 0 45 4 45 15 0 10 -10 15 -30 15 -23 0
-30 4 -30 20 0 16 7 20 30 20 21 0 30 5 30 16 0 12 -7 15 -30 12 -24 -4 -30
-1 -30 14 0 13 8 18 30 18 20 0 30 5 30 15 0 12 -11 15 -45 13 l-45 -1 0 -79z"/>
<path d="M1210 1861 c0 -68 3 -81 16 -81 14 0 16 8 11 56 -7 69 8 68 37 -4 15
-38 26 -52 41 -52 18 0 20 6 19 77 -1 58 -5 78 -15 78 -10 0 -12 -14 -10 -52
1 -29 -1 -53 -6 -53 -4 1 -19 24 -33 53 -14 29 -33 53 -42 55 -16 3 -18 -6
-18 -77z"/>
<path d="M1505 1932 c-12 -13 -3 -22 23 -22 l27 0 -3 -65 c-4 -61 -2 -65 18
-65 21 0 22 3 15 65 l-7 65 26 0 c15 0 26 6 26 13 0 10 -17 14 -60 14 -33 0
-62 -3 -65 -5z"/>
<path d="M1829 1938 c-1 -2 -3 -38 -4 -80 -2 -61 1 -78 11 -78 11 0 14 19 14
80 0 47 -4 80 -10 80 -5 0 -11 -1 -11 -2z"/>
<path d="M2049 1936 c0 0 -1 -36 -2 -78 -2 -70 0 -78 17 -78 15 0 17 6 14 35
-4 33 -2 35 24 35 18 0 28 5 28 15 0 10 -10 15 -30 15 -22 0 -28 4 -24 15 4 9
19 15 36 15 47 0 28 25 -20 26 -23 1 -42 1 -43 0z"/>
<path d="M2320 1938 c-1 -2 -2 -38 -3 -81 -2 -67 0 -77 16 -77 15 0 17 10 17
80 0 64 -3 80 -15 80 -8 0 -15 -1 -15 -2z"/>
<path d="M2559 1911 c-36 -36 -37 -60 -3 -100 19 -24 34 -31 60 -31 28 0 34 4
34 20 0 17 -3 19 -18 11 -27 -14 -62 13 -62 48 0 35 17 51 52 51 18 0 28 5 28
15 0 27 -58 18 -91 -14z"/>
</g>
</svg>
