<?xml version="1.0" encoding="utf-8"?>
<!-- Generator: Adobe Illustrator 19.1.0, SVG Export Plug-In . SVG Version: 6.00 Build 0)  -->
<!DOCTYPE svg PUBLIC "-//W3C//DTD SVG 1.1//EN" "http://www.w3.org/Graphics/SVG/1.1/DTD/svg11.dtd">
<svg version="1.1" id="Layer_1" xmlns="http://www.w3.org/2000/svg" xmlns:xlink="http://www.w3.org/1999/xlink" x="0px" y="0px"
	 viewBox="0 0 52 52" enable-background="new 0 0 52 52" xml:space="preserve">
<g>
	<path fill="#A3A3A3" d="M29.7,3c-3.8,0-7.4,1.9-9.5,4.9c-0.9-0.4-2-0.6-3-0.6c-3.6,0-6.7,2.5-7.6,5.8C5.4,13.3,2,16.8,2,21.1
		C2,25.5,5.5,29,9.9,29h31.5c4.7,0,8.6-3.9,8.6-8.6s-3.9-8.6-8.6-8.6c-0.2,0-0.3,0-0.5,0C39.7,6.7,35.1,3,29.7,3L29.7,3z"/>
	<g>
		<path fill="#E6E6E6" d="M9.9,15.2c0.5,0,1,0.1,1.5,0.2c0-0.1,0-0.1,0-0.2c0-3.2,2.6-5.8,5.9-5.8c1.4,0,2.7,0.5,3.7,1.3
			C22.4,7.3,25.8,5,29.7,5c5.1,0,9.3,4,9.5,9.1c0.7-0.2,1.4-0.4,2.2-0.4c3.6,0,6.6,3,6.6,6.6c0,3.6-3,6.6-6.6,6.6
			c-0.2,0-31.5,0-31.5,0C6.6,27,4,24.3,4,21.1C4,17.9,6.6,15.2,9.9,15.2z"/>
	</g>
	<path fill="#15AADC" d="M21.3,46.4c-0.2,0-0.3,0-0.5-0.1c-0.6-0.3-0.9-1-0.6-1.6l6-13.1c0.3-0.6,1-0.9,1.6-0.6
		c0.6,0.3,0.9,1,0.6,1.6l-6,13.1C22.2,46.1,21.7,46.4,21.3,46.4z"/>
	<path fill="#15AADC" d="M29.3,41.6c-0.2,0-0.4,0-0.5-0.1c-0.6-0.3-0.8-1-0.5-1.6l2.4-4.8c0.3-0.6,1-0.8,1.6-0.5
		c0.6,0.3,0.8,1,0.5,1.6l-2.4,4.8C30.2,41.4,29.8,41.6,29.3,41.6z"/>
	<path fill="#15AADC" d="M16.8,41.6c-0.2,0-0.4,0-0.5-0.1c-0.6-0.3-0.8-1-0.5-1.6l2.4-4.8c0.3-0.6,1-0.8,1.6-0.5
		c0.6,0.3,0.8,1,0.5,1.6l-2.4,4.8C17.7,41.4,17.2,41.6,16.8,41.6z"/>
	<path fill="#15AADC" d="M8.7,46.4c-0.2,0-0.3,0-0.5-0.1c-0.6-0.3-0.9-1-0.6-1.6l6-13.1c0.3-0.6,1-0.9,1.6-0.6
		c0.6,0.3,0.9,1,0.6,1.6l-6,13.1C9.6,46.1,9.2,46.4,8.7,46.4z"/>
	<path fill="#15AADC" d="M33.8,46.4c-0.2,0-0.3,0-0.5-0.1c-0.6-0.3-0.9-1-0.6-1.6l6-13.1c0.3-0.6,1-0.9,1.6-0.6
		c0.6,0.3,0.9,1,0.6,1.6l-6,13.1C34.7,46.1,34.3,46.4,33.8,46.4z"/>
</g>
</svg>
