<?xml version="1.0" standalone="no"?>
<!DOCTYPE svg PUBLIC "-//W3C//DTD SVG 20010904//EN"
 "http://www.w3.org/TR/2001/REC-SVG-20010904/DTD/svg10.dtd">
<svg version="1.0" xmlns="http://www.w3.org/2000/svg"
 width="900.000000pt" height="900.000000pt" viewBox="0 0 900.000000 900.000000"
 preserveAspectRatio="xMidYMid meet">
<metadata>
Created by potrace 1.10, written by Peter Selinger 2001-2011
</metadata>
<g transform="translate(0.000000,900.000000) scale(0.100000,-0.100000)"
fill="#000000" stroke="none">
<path d="M3070 8897 c-6 -6 -309 -25 -510 -32 -80 -3 -183 -10 -230 -15 -47
-5 -152 -14 -235 -19 -157 -9 -223 -20 -246 -40 -8 -6 -23 -18 -34 -26 -19
-14 -19 -14 7 -15 15 0 29 4 32 9 3 5 34 12 68 16 35 4 86 13 113 20 30 7 87
11 140 9 50 -2 162 3 250 11 88 7 250 17 360 21 300 10 1032 12 1265 3 113 -4
306 -10 430 -13 370 -11 688 -24 697 -29 4 -3 60 -8 123 -11 270 -16 576 -42
591 -52 9 -5 36 -8 169 -19 25 -2 95 -10 155 -18 61 -9 126 -18 145 -20 19 -2
90 -16 157 -31 67 -14 137 -26 156 -26 22 0 37 -6 41 -15 8 -21 75 -20 91 2
15 21 47 11 38 -13 -5 -14 0 -15 44 -9 47 6 52 5 72 -22 11 -15 25 -33 30 -39
4 -5 14 -20 20 -32 6 -12 19 -22 28 -22 13 0 15 -8 9 -46 -4 -29 -2 -52 5 -60
8 -9 10 -117 9 -351 -1 -186 -2 -502 -1 -703 1 -201 2 -372 2 -380 0 -8 0 -87
0 -174 0 -117 -3 -161 -13 -167 -10 -6 -9 -13 1 -32 10 -19 11 -47 4 -121 -5
-53 -6 -101 -2 -107 10 -18 10 -689 -1 -753 -5 -35 -16 -64 -27 -72 -18 -13
-15 -16 22 -18 15 -1 19 -7 18 -26 -1 -14 -2 -259 -2 -545 0 -286 -1 -572 -2
-635 -1 -63 -2 -128 -2 -145 0 -16 0 -239 0 -495 0 -256 2 -490 4 -520 3 -52
3 -162 0 -240 -1 -19 0 -161 3 -315 4 -250 3 -282 -12 -298 -15 -17 -15 -19 0
-28 15 -8 16 -74 18 -716 1 -390 2 -719 2 -733 0 -14 -2 -62 -5 -108 -5 -62
-12 -89 -29 -112 -15 -21 -25 -27 -33 -20 -15 13 -25 3 -25 -25 0 -33 -37 -75
-66 -75 -15 0 -27 -7 -30 -18 -21 -70 -89 -152 -125 -152 -10 0 -20 -8 -23
-18 -5 -15 -25 -20 -109 -31 -105 -12 -250 -28 -323 -34 -45 -4 -104 -25 -104
-37 0 -14 33 -16 105 -9 39 4 113 12 166 17 53 5 106 15 117 21 11 6 51 11 87
11 97 0 174 47 241 147 21 32 53 72 69 89 71 74 115 134 115 158 0 14 3 27 8
29 12 8 5 7794 -8 7851 -9 46 -45 105 -80 134 -25 21 -97 52 -120 52 -12 0
-30 5 -41 10 -10 6 -56 13 -101 16 -46 2 -96 9 -113 14 -16 5 -70 14 -120 20
-49 6 -108 15 -130 20 -22 5 -64 10 -94 10 -29 0 -92 6 -140 14 -133 22 -281
37 -651 65 -80 6 -185 16 -235 22 -49 5 -234 14 -410 19 -176 5 -383 12 -460
15 -196 8 -1329 18 -1335 12z"/>
<path d="M1727 8698 c-15 -13 -27 -29 -27 -35 0 -6 -3 -13 -7 -15 -5 -1 -17
-21 -28 -42 -20 -39 -20 -57 -17 -1555 2 -1437 6 -1947 18 -2141 2 -47 4 -254
2 -460 -2 -460 3 -1633 8 -1641 2 -4 4 -204 5 -445 0 -242 4 -457 9 -479 l8
-40 1 37 c0 20 6 48 12 62 9 18 9 33 0 57 -9 26 -8 37 5 57 11 17 14 36 10 63
-5 31 -2 43 19 67 27 32 31 48 14 54 -6 2 -5 13 5 32 14 27 15 124 2 145 -3 4
-7 90 -11 192 -3 101 -7 191 -10 199 -2 8 -7 159 -10 335 -4 176 -9 338 -10
360 -26 378 -35 1771 -15 2338 19 555 24 1073 11 1082 -9 5 -9 11 2 23 17 20
30 119 16 127 -5 4 -9 -11 -9 -34 0 -43 -14 -55 -23 -21 -7 27 3 100 14 100 5
0 9 -7 9 -16 0 -8 4 -13 9 -10 11 7 12 176 1 176 -4 0 -11 -8 -15 -17 -6 -16
-8 -15 -25 7 -27 34 -25 39 15 56 35 14 48 44 20 44 -8 0 -15 -5 -15 -11 0 -6
-6 -9 -12 -6 -9 2 -13 26 -14 68 -1 35 -5 127 -9 204 -5 77 -9 325 -9 552 -1
377 1 413 17 430 9 11 17 26 17 33 0 8 12 26 26 41 35 36 27 58 -9 27z"/>
<path d="M6864 7956 c-3 -8 -1 -23 5 -33 9 -15 10 -13 11 15 0 34 -7 42 -16
18z"/>
<path d="M2573 7822 c-36 -4 -41 -16 -18 -46 9 -12 15 -42 15 -79 0 -50 2 -58
18 -55 13 2 18 17 22 65 3 34 11 68 18 75 29 29 7 46 -55 40z"/>
<path d="M2695 7808 c-2 -7 -3 -47 -2 -88 2 -59 5 -75 17 -75 11 0 14 10 13
38 -2 27 1 37 10 34 6 -2 12 -19 12 -38 0 -30 3 -34 25 -34 23 0 25 3 21 45
-4 53 -16 80 -37 80 -8 0 -19 11 -24 25 -10 27 -28 33 -35 13z"/>
<path d="M1710 7760 c0 -11 5 -20 10 -20 6 0 10 9 10 20 0 11 -4 20 -10 20 -5
0 -10 -9 -10 -20z"/>
<path d="M2884 7762 c-5 -4 -16 -21 -23 -38 -11 -27 -10 -37 3 -63 18 -34 27
-37 57 -20 20 10 20 11 3 30 -17 19 -17 20 4 26 26 6 27 16 6 48 -17 26 -31
30 -50 17z"/>
<path d="M3768 7758 c-2 -7 -2 -46 0 -85 3 -55 7 -73 18 -73 8 0 14 6 15 13 1
6 2 21 3 32 2 32 40 26 44 -7 3 -29 30 -46 38 -24 9 23 -1 151 -11 150 -5 -1
-16 -13 -23 -28 -17 -35 -38 -33 -45 4 -6 30 -31 41 -39 18z"/>
<path d="M3010 7734 c-15 -38 -12 -80 5 -94 21 -17 32 -4 37 45 3 22 8 48 12
58 7 14 3 17 -18 17 -19 0 -29 -7 -36 -26z"/>
<path d="M3136 7745 c-29 -29 -34 -127 -5 -110 17 11 83 12 96 2 24 -18 43 1
43 40 0 49 -6 56 -56 71 -53 15 -59 15 -78 -3z"/>
<path d="M3336 7718 c-9 -12 -16 -32 -16 -43 1 -28 34 -65 60 -65 25 0 59 36
60 63 1 58 -73 90 -104 45z m52 -44 c-9 -9 -21 -13 -27 -10 -20 13 -11 26 16
26 25 0 26 -1 11 -16z"/>
<path d="M4613 7733 c-14 -5 -17 -51 -5 -69 4 -5 17 -17 30 -26 l23 -16 -31
-11 c-40 -13 -34 -36 9 -36 25 0 36 7 49 28 11 18 13 30 7 35 -5 4 -19 17 -29
30 -19 22 -19 23 -1 36 33 24 -8 47 -52 29z"/>
<path d="M4114 7722 c-35 -23 -43 -84 -15 -109 17 -14 17 -18 5 -30 -19 -20
-18 -30 6 -36 50 -13 80 24 80 101 0 33 -5 48 -22 63 -25 20 -37 23 -54 11z
m41 -72 c-3 -5 -13 -6 -21 -3 -12 4 -13 8 -3 14 15 9 32 2 24 -11z"/>
<path d="M3957 7713 c-10 -10 -8 -71 2 -77 5 -4 3 -20 -6 -37 -14 -27 -14 -33
0 -46 13 -13 17 -11 36 15 11 17 21 35 21 42 0 7 7 28 16 47 13 26 14 37 5 46
-9 9 -14 8 -21 -3 -8 -12 -11 -12 -28 3 -10 9 -22 14 -25 10z"/>
<path d="M4257 7706 c-8 -8 -13 -30 -11 -53 1 -21 2 -46 3 -55 1 -10 8 -18 16
-18 11 0 15 11 15 39 0 22 5 43 10 46 6 3 10 17 10 31 0 27 -21 32 -43 10z"/>
<path d="M3573 7703 c-7 -2 -13 -11 -13 -19 0 -19 41 -35 58 -22 32 26 -4 58
-45 41z"/>
<path d="M4372 7698 c-18 -18 -15 -94 4 -112 20 -21 37 -20 65 3 30 24 32 87
4 107 -23 17 -57 18 -73 2z m55 -62 c-4 -9 -11 -16 -17 -16 -11 0 -14 33 -3
43 11 11 26 -10 20 -27z"/>
<path d="M4755 7663 c-19 -45 -7 -83 31 -103 28 -16 43 -6 28 18 -9 13 -6 23
9 44 18 24 19 31 7 53 -21 39 -56 33 -75 -12z"/>
<path d="M4922 7684 c-17 -12 -22 -25 -22 -58 0 -48 22 -78 42 -58 7 7 17 8
29 2 35 -19 37 55 3 108 -17 26 -23 27 -52 6z"/>
<path d="M5055 7660 c-4 -13 0 -31 11 -47 12 -19 13 -28 6 -31 -25 -8 -12 -32
18 -32 29 0 30 2 30 43 0 65 -9 87 -35 87 -15 0 -26 -8 -30 -20z"/>
<path d="M5190 7660 c-46 -46 -7 -116 62 -111 9 0 21 16 28 35 24 72 -40 126
-90 76z m50 -45 c0 -16 -6 -25 -15 -25 -9 0 -15 9 -15 25 0 16 6 25 15 25 9 0
15 -9 15 -25z"/>
<path d="M5351 7661 c-6 -11 -11 -40 -11 -65 0 -42 2 -46 24 -46 21 0 25 6 29
43 3 23 7 51 9 62 4 28 -37 33 -51 6z"/>
<path d="M2830 7408 c-45 -30 -56 -55 -69 -151 -15 -108 -13 -565 4 -862 8
-137 15 -302 15 -366 0 -146 16 -206 68 -248 20 -17 45 -31 56 -31 11 0 33 -4
50 -10 17 -5 58 -16 91 -25 33 -9 83 -22 110 -30 28 -8 82 -19 120 -25 39 -6
99 -15 135 -21 36 -5 81 -14 100 -19 19 -6 62 -10 96 -10 33 0 83 -7 110 -15
40 -13 136 -17 499 -22 396 -5 457 -4 511 11 34 9 86 16 115 16 30 0 81 7 114
15 33 8 76 14 96 15 48 0 83 29 104 87 16 43 18 119 22 780 5 702 5 732 -13
757 -11 14 -25 26 -31 26 -7 0 -13 4 -13 9 0 25 -68 44 -173 47 -62 2 -115 8
-123 14 -8 7 -65 13 -143 15 -71 2 -134 6 -140 9 -6 4 -52 9 -103 11 -184 8
-316 15 -468 25 -85 5 -369 12 -630 16 l-475 6 -35 -24z m1150 -57 c244 -20
533 -35 680 -36 99 0 152 -5 168 -14 16 -8 42 -11 80 -7 32 4 81 9 111 12 43
5 56 3 63 -10 5 -9 16 -16 23 -16 10 0 15 -10 15 -30 0 -16 -4 -30 -9 -30 -24
0 -61 21 -61 35 0 19 -34 20 -50 0 -7 -8 -22 -15 -34 -15 -11 0 -27 -4 -35 -9
-18 -12 20 -37 71 -46 20 -4 47 -18 60 -32 22 -23 23 -33 25 -166 5 -414 3
-720 -6 -731 -5 -7 -5 -33 2 -68 7 -38 7 -86 0 -150 -8 -75 -7 -96 4 -109 10
-12 11 -23 2 -50 -7 -19 -16 -38 -20 -44 -5 -5 -9 -26 -9 -47 0 -43 -12 -52
-71 -52 -27 -1 -39 -6 -45 -21 -5 -11 -19 -21 -32 -23 -13 -2 -26 -10 -29 -18
-7 -18 -21 -18 -40 2 -9 9 -25 13 -38 10 -12 -3 -55 -8 -96 -12 -41 -3 -85
-13 -98 -21 -21 -14 -25 -14 -33 1 -8 14 -12 14 -27 4 -17 -12 -90 -13 -321
-5 -25 1 -83 -3 -130 -7 -131 -14 -237 -5 -368 28 -35 9 -67 14 -73 10 -12 -7
-117 11 -199 34 -30 8 -87 16 -127 18 -58 3 -77 8 -94 25 -18 18 -28 20 -70
15 -41 -6 -50 -4 -58 12 -11 20 -51 37 -51 21 0 -19 -31 -8 -89 32 -48 33 -60
47 -66 75 -3 19 -10 32 -16 29 -12 -8 -12 -51 1 -74 12 -23 -9 -55 -28 -43
-34 22 -57 578 -50 1229 l3 261 25 27 25 27 490 -5 c270 -3 551 -10 625 -16z"/>
<path d="M2873 7293 c-10 -26 14 -38 42 -23 16 9 58 14 105 15 43 0 82 3 86 8
4 4 -1 7 -12 7 -10 0 -63 2 -117 4 -78 2 -100 0 -104 -11z"/>
<path d="M4790 7229 c19 -6 44 -14 55 -19 13 -5 28 -3 40 6 18 13 18 14 -7 14
-14 0 -47 2 -74 5 -47 5 -48 4 -14 -6z"/>
<path d="M3129 7171 c-14 -9 -15 -57 -12 -428 3 -308 7 -423 16 -437 9 -12 26
-19 52 -20 l40 -1 -1 40 c-2 50 -12 370 -19 578 -5 170 5 226 42 228 45 3 208
-3 313 -11 118 -10 214 -15 575 -30 170 -7 525 -25 620 -31 78 -5 107 11 73
39 -19 15 -220 27 -638 37 -118 3 -242 10 -275 15 -33 5 -193 11 -355 14 -162
3 -322 8 -355 11 -33 3 -67 1 -76 -4z"/>
<path d="M3286 7039 c-20 -15 -26 -29 -26 -57 0 -47 9 -60 46 -68 20 -4 34 -1
43 9 14 18 -1 32 -34 32 -15 0 -20 7 -20 25 0 22 5 25 43 28 l43 3 -3 -43 c-4
-50 21 -65 40 -23 15 32 30 32 42 0 5 -14 16 -25 24 -25 20 0 33 95 15 116
-11 14 -15 13 -30 -8 -18 -23 -18 -23 -33 -3 -11 15 -17 17 -26 8 -9 -9 -20
-7 -44 8 -39 24 -47 24 -80 -2z"/>
<path d="M3794 7019 c-18 -20 -18 -21 1 -36 20 -14 20 -14 -2 -33 -13 -10 -23
-27 -23 -38 0 -16 9 -22 41 -27 47 -8 68 9 44 35 -13 14 -12 18 5 33 24 20 25
35 4 65 -19 28 -45 28 -70 1z"/>
<path d="M4253 6922 c-7 -5 -11 -116 -12 -319 -1 -304 -1 -313 18 -313 11 0
23 9 26 21 5 16 10 18 21 8 7 -6 42 -14 77 -16 53 -5 68 -2 85 13 20 17 22 28
22 116 0 88 -2 99 -22 119 l-23 21 23 15 c20 14 22 23 22 107 -1 114 -15 137
-90 144 -60 6 -100 -4 -100 -23 0 -21 53 -45 100 -45 l41 0 -3 -87 -3 -88 -50
3 c-27 1 -57 -2 -65 -7 -25 -17 12 -44 67 -51 l48 -5 0 -88 0 -87 -41 6 c-29
4 -51 1 -73 -10 -28 -15 -32 -15 -37 -1 -3 8 -4 139 -2 290 3 272 1 296 -29
277z"/>
<path d="M3387 6873 c-4 -3 -7 -14 -7 -23 0 -19 58 -40 109 -40 l31 0 0 -90
c0 -88 -1 -90 -20 -80 -33 18 -94 9 -99 -14 -5 -28 26 -46 76 -46 l43 0 0 -85
0 -84 -49 6 c-59 7 -101 -2 -101 -21 0 -43 140 -65 173 -28 25 28 25 209 0
228 -17 13 -17 15 0 25 14 8 17 25 17 104 0 110 -3 121 -41 140 -28 15 -120
21 -132 8z"/>
<path d="M3621 6856 c-34 -46 -41 -181 -12 -217 30 -37 41 -15 41 77 l0 85 43
-3 42 -3 3 -82 c2 -70 6 -84 23 -93 11 -6 24 -8 29 -5 6 3 10 50 10 103 0 87
-3 99 -23 118 -25 24 -141 39 -156 20z"/>
<path d="M4534 6795 c-8 -20 -14 -67 -14 -113 0 -71 2 -81 23 -95 l22 -16 -22
-16 c-21 -15 -23 -24 -23 -106 0 -94 14 -141 45 -153 9 -3 40 -6 68 -6 67 0
98 26 90 75 -3 19 -2 59 1 89 6 45 11 56 25 56 37 0 46 -26 28 -84 -10 -29
-17 -64 -17 -79 0 -14 -4 -29 -10 -32 -17 -10 -11 -28 7 -21 9 4 32 1 50 -5
44 -14 53 -5 46 49 -4 32 -10 42 -24 42 -23 0 -34 17 -21 33 5 7 13 31 17 54
4 24 11 45 16 49 13 8 11 74 -2 74 -7 0 -18 -8 -25 -17 -12 -17 -13 -17 -26 0
-18 24 -48 12 -48 -18 0 -32 -12 -37 -38 -19 -27 19 -29 44 -3 44 24 0 31 26
31 120 0 70 -2 77 -29 103 -25 23 -37 27 -91 27 -60 0 -61 0 -76 -35z m134
-114 c2 -46 -1 -88 -5 -92 -4 -4 -26 -4 -48 0 l-39 6 1 85 c1 47 2 86 2 88 1
2 20 2 44 0 l42 -3 3 -84z m-41 -151 l43 0 0 -90 0 -90 -42 0 c-24 0 -47 4
-53 8 -5 4 -10 48 -10 99 0 58 3 89 10 83 5 -6 28 -10 52 -10z"/>
<path d="M3856 6709 c-9 -48 -7 -128 4 -150 7 -13 7 -25 1 -38 -15 -26 -22
-129 -11 -136 6 -3 10 -13 10 -21 0 -12 -7 -14 -31 -9 -28 6 -30 5 -27 -16 4
-30 37 -37 55 -13 11 15 17 16 38 6 38 -17 80 -15 98 6 20 22 23 127 5 167 -8
18 -8 31 0 48 6 12 13 44 16 71 5 41 2 55 -16 83 -21 31 -27 33 -79 33 -55 0
-57 -1 -63 -31z m100 -32 c1 -1 4 -27 5 -57 l4 -55 -35 0 c-35 0 -35 0 -38 49
-4 67 2 80 36 71 15 -4 28 -7 28 -8z m5 -228 c7 -63 2 -72 -37 -67 -27 3 -29
6 -32 57 -4 72 0 81 35 72 25 -7 29 -13 34 -62z"/>
<path d="M4040 6675 c-15 -18 -4 -52 20 -60 28 -9 40 2 40 35 0 38 -36 54 -60
25z"/>
<path d="M4066 6568 c-22 -44 -22 -190 0 -223 14 -21 24 -25 65 -25 34 0 49 4
49 13 0 18 -30 44 -55 49 -24 4 -34 47 -26 108 6 41 8 44 36 45 23 0 31 5 33
23 4 23 -2 27 -55 36 -28 5 -34 2 -47 -26z"/>
<path d="M3597 6584 c-4 -4 -7 -44 -7 -89 0 -60 4 -86 14 -95 8 -6 12 -18 9
-26 -7 -19 36 -34 96 -34 37 0 52 5 70 24 21 23 23 32 19 119 -1 53 -6 98 -10
102 -3 4 -16 2 -27 -5 -19 -10 -21 -20 -21 -97 0 -84 0 -85 -22 -79 -13 3 -33
6 -45 6 -21 0 -22 5 -25 88 -3 79 -5 87 -23 90 -12 2 -24 0 -28 -4z"/>
<path d="M3420 6210 c0 -5 16 -10 36 -10 21 0 33 4 29 10 -3 6 -19 10 -36 10
-16 0 -29 -4 -29 -10z"/>
<path d="M3936 5940 c-36 -23 -42 -33 -50 -85 -8 -53 9 -83 62 -111 l44 -23
39 25 c33 20 39 30 39 59 0 39 -16 54 -33 31 -11 -15 -14 -15 -35 -1 -34 25
-27 38 17 32 54 -7 60 14 15 58 -39 39 -56 42 -98 15z m12 -122 c-2 -13 -7
-23 -13 -23 -5 0 -11 10 -13 23 -2 15 2 22 13 22 11 0 15 -7 13 -22z"/>
<path d="M6903 4930 c0 -25 2 -35 4 -22 2 12 2 32 0 45 -2 12 -4 2 -4 -23z"/>
<path d="M6897 4723 c-2 -4 -1 -28 2 -53 l7 -45 6 45 c6 41 -3 74 -15 53z"/>
<path d="M6898 4404 c-4 -58 5 -154 13 -134 7 16 3 169 -4 177 -3 2 -7 -17 -9
-43z"/>
<path d="M6903 3715 c0 -33 2 -45 4 -27 2 18 2 45 0 60 -2 15 -4 0 -4 -33z"/>
<path d="M6896 3561 c-4 -6 -4 -21 0 -33 6 -19 7 -19 16 -5 11 20 -5 57 -16
38z"/>
<path d="M3185 2873 c-32 -8 -95 -74 -116 -121 -22 -50 -18 -62 17 -62 20 0
24 5 24 28 0 49 60 112 107 112 8 0 23 5 34 11 16 8 18 13 8 25 -11 14 -35 16
-74 7z"/>
<path d="M3283 2803 c-4 -11 1 -22 18 -32 57 -37 79 -73 79 -127 0 -46 -4 -55
-31 -78 -46 -39 -90 -35 -134 10 -19 20 -38 47 -41 60 -5 18 -13 24 -35 24
-24 0 -29 -4 -29 -25 0 -63 102 -154 173 -155 51 0 110 32 136 73 28 46 29
143 2 187 -39 64 -123 103 -138 63z"/>
<path d="M3177 2775 c-36 -35 -47 -68 -27 -80 6 -3 14 4 20 17 14 33 44 65 65
69 29 6 31 29 2 29 -14 0 -39 -15 -60 -35z"/>
<path d="M6898 2783 c-2 -10 -1 -29 3 -43 6 -20 7 -17 8 18 1 44 -4 54 -11 25z"/>
<path d="M3218 2729 c-21 -12 -24 -39 -5 -39 6 0 20 12 30 25 19 27 7 33 -25
14z"/>
<path d="M3534 2695 c-34 -36 -34 -37 -34 -131 l0 -95 28 3 c27 3 27 3 30 90
3 99 14 113 82 113 31 0 35 3 35 25 0 23 -4 25 -53 28 -50 3 -56 1 -88 -33z"/>
<path d="M3770 2711 c0 -5 -9 -12 -19 -16 -32 -10 -54 -71 -48 -128 5 -41 13
-55 44 -83 34 -30 45 -34 94 -34 41 0 60 5 72 18 33 36 9 60 -40 41 -53 -20
-113 7 -113 50 0 7 33 11 89 11 50 0 92 4 95 9 3 5 -1 29 -10 54 -11 33 -25
52 -50 66 -35 21 -114 29 -114 12z m97 -65 c37 -33 22 -45 -44 -39 -47 5 -53
8 -53 29 0 39 57 45 97 10z"/>
<path d="M4054 2691 c-31 -13 -62 -58 -70 -98 -17 -90 89 -195 165 -163 38 15
65 46 80 90 10 30 9 37 -6 47 -22 17 -88 17 -102 0 -14 -17 -4 -27 25 -27 31
0 39 -18 18 -41 -23 -26 -65 -24 -97 4 -22 18 -27 31 -27 69 0 38 4 48 26 63
18 12 36 15 58 10 85 -17 96 -17 96 -3 0 28 -37 49 -91 54 -30 2 -64 0 -75 -5z"/>
<path d="M4352 2675 c-55 -24 -71 -52 -72 -120 0 -55 3 -63 35 -100 34 -37 39
-39 95 -40 52 0 63 4 87 27 22 22 27 39 31 88 4 51 1 65 -19 95 -22 32 -81 66
-112 65 -6 -1 -27 -7 -45 -15z m83 -53 c22 -15 55 -66 55 -84 0 -25 -53 -78
-78 -78 -32 0 -82 53 -82 88 0 57 65 103 105 74z"/>
<path d="M4611 2623 c-29 -36 -31 -42 -31 -124 0 -90 5 -101 43 -91 14 4 17
17 17 88 0 79 1 85 26 100 19 13 32 15 52 8 41 -14 54 -49 48 -126 -4 -60 -2
-69 16 -82 42 -29 50 -12 46 97 l-3 99 -39 34 c-34 29 -47 34 -92 34 -49 0
-55 -3 -83 -37z"/>
<path d="M6902 2630 c0 -19 2 -27 5 -17 2 9 2 25 0 35 -3 9 -5 1 -5 -18z"/>
<path d="M3129 2386 c-30 -15 -36 -43 -12 -62 13 -11 14 -17 6 -20 -20 -9 -15
-32 7 -39 52 -17 84 37 40 68 -18 13 -19 16 -5 27 31 26 4 46 -36 26z"/>
<path d="M3308 2350 c-25 -28 -22 -62 5 -88 27 -26 77 -30 77 -7 0 8 -4 15 -9
15 -5 0 -16 11 -25 25 -16 24 -16 26 9 35 34 13 27 34 -11 38 -19 2 -35 -4
-46 -18z"/>
<path d="M3496 2355 c-18 -49 1 -129 30 -118 22 8 16 126 -7 131 -9 2 -19 -4
-23 -13z"/>
<path d="M3664 2345 c-27 -28 -33 -85 -10 -105 26 -21 61 -8 64 23 2 16 -2 34
-8 42 -7 9 -8 15 0 20 15 9 12 32 -6 39 -9 3 -25 -4 -40 -19z"/>
<path d="M3848 2333 c-12 -3 -16 -16 -16 -53 -1 -54 9 -68 28 -45 11 14 15 13
27 -5 9 -13 23 -20 36 -18 19 3 22 10 25 62 3 56 2 58 -19 53 -11 -3 -31 -2
-43 2 -11 4 -28 6 -38 4z"/>
<path d="M4040 2315 c0 -8 5 -15 10 -15 6 0 10 -17 10 -37 0 -46 13 -68 34
-60 10 4 16 18 16 41 0 19 5 38 10 41 6 3 10 15 10 26 0 16 -7 19 -45 19 -33
0 -45 -4 -45 -15z"/>
<path d="M4246 2295 c-15 -41 -3 -105 20 -105 22 0 35 35 26 77 -8 40 -35 56
-46 28z"/>
<path d="M4422 2299 c-19 -7 -22 -16 -22 -64 0 -53 1 -56 22 -53 24 3 44 35
54 86 5 23 2 30 -13 34 -10 3 -29 1 -41 -3z"/>
<path d="M4587 2283 c-4 -3 -7 -30 -7 -60 0 -54 7 -61 44 -47 25 9 22 90 -3
104 -23 12 -26 12 -34 3z"/>
<path d="M4742 2253 c-28 -34 -28 -35 4 -72 18 -22 35 -31 55 -31 38 0 37 20
-3 50 l-32 24 33 13 c39 16 36 37 -5 41 -22 2 -35 -4 -52 -25z"/>
<path d="M1735 1920 c-3 -5 -1 -18 4 -27 6 -10 11 -13 11 -6 0 6 3 18 6 27 7
17 -11 22 -21 6z"/>
<path d="M1696 1768 c7 -76 10 -88 24 -88 21 0 5 140 -17 147 -10 4 -11 -11
-7 -59z"/>
<path d="M3938 1710 c-27 -27 -30 -36 -24 -69 3 -22 6 -197 6 -390 0 -193 3
-358 6 -366 4 -8 12 -15 19 -15 10 0 12 79 9 387 -2 345 -1 390 14 415 9 15
22 28 29 28 18 0 16 27 -3 34 -23 9 -23 9 -56 -24z"/>
<path d="M1705 1630 c-8 -13 -3 -200 6 -206 12 -7 16 20 18 119 2 89 -6 116
-24 87z"/>
<path d="M3610 1548 c-23 -37 -24 -51 -10 -79 15 -28 27 -24 39 14 7 18 24 39
42 50 39 22 33 41 -14 45 -32 3 -39 -1 -57 -30z"/>
<path d="M4238 1523 c-25 -6 -45 -77 -28 -98 19 -23 27 -19 40 19 8 26 18 36
41 41 28 6 42 35 17 35 -7 0 -22 2 -33 4 -11 2 -28 2 -37 -1z"/>
<path d="M1705 1370 c-9 -14 6 -81 16 -74 12 7 12 71 0 79 -5 3 -12 1 -16 -5z"/>
<path d="M1709 1140 c-3 -253 0 -333 10 -343 13 -13 14 19 11 253 -2 164 -19
238 -21 90z"/>
<path d="M3626 1201 c-25 -27 -31 -82 -12 -106 14 -17 17 -18 26 -5 5 8 10 24
10 36 0 11 13 34 30 50 16 16 30 32 30 37 0 16 -67 6 -84 -12z"/>
<path d="M4238 1150 c-30 -23 -42 -71 -26 -105 16 -35 32 -26 39 20 4 26 16
47 35 62 24 20 27 25 14 33 -22 14 -34 12 -62 -10z"/>
<path d="M1741 764 c-1 -32 27 -81 74 -130 40 -43 65 -55 65 -34 0 19 -44 72
-67 81 -13 5 -23 15 -23 24 0 8 -4 15 -10 15 -5 0 -16 15 -24 33 -11 25 -15
28 -15 11z"/>
<path d="M6898 750 c-11 -38 -10 -56 3 -43 6 6 9 23 7 39 l-3 29 -7 -25z"/>
<path d="M2720 459 c-31 -6 -30 -6 18 -8 28 0 52 1 52 3 0 8 -37 11 -70 5z"/>
<path d="M4605 280 c-4 -6 9 -10 32 -10 28 0 34 3 23 10 -20 13 -47 13 -55 0z"/>
<path d="M5230 220 c0 -5 9 -10 21 -10 11 0 17 5 14 10 -3 6 -13 10 -21 10 -8
0 -14 -4 -14 -10z"/>
<path d="M5655 190 c-23 -6 -16 -8 35 -9 45 0 60 2 50 9 -17 11 -42 11 -85 0z"/>
</g>
</svg>
