<?xml version="1.0" encoding="iso-8859-1"?>
<!-- Generator: Adobe Illustrator 16.0.0, SVG Export Plug-In . SVG Version: 6.00 Build 0)  -->
<!DOCTYPE svg PUBLIC "-//W3C//DTD SVG 1.1//EN" "http://www.w3.org/Graphics/SVG/1.1/DTD/svg11.dtd">
<svg version="1.1" id="Capa_1" xmlns="http://www.w3.org/2000/svg" xmlns:xlink="http://www.w3.org/1999/xlink" x="0px" y="0px"
	 width="576.219px" height="576.219px" viewBox="0 0 576.219 576.219" style="enable-background:new 0 0 576.219 576.219;"
	 xml:space="preserve">
<g>
	<path d="M321.577,406.949V172.124c-36.26,22.711-37.455-23.906-66.937,0v234.825c-23.973,12.234-40.439,37.154-40.439,65.863
		c0,40.752,33.155,73.906,73.908,73.906c40.753,0,73.908-33.154,73.908-73.906C362.017,444.104,345.552,419.184,321.577,406.949z
		 M318.681,482.906c-10.318,0-18.686-8.367-18.686-18.686s8.357-18.686,18.686-18.686c10.318,0,18.684,8.367,18.684,18.686
		S328.999,482.906,318.681,482.906z"/>
	<path d="M264.203,57.374h57.375c2.639,0,4.781-2.142,4.781-4.781c0-2.639-2.143-4.781-4.781-4.781h-57.375
		c-2.64,0-4.781,2.142-4.781,4.781C259.421,55.232,261.563,57.374,264.203,57.374z"/>
	<path d="M321.577,66.937H292.89c-2.639,0-4.781,2.142-4.781,4.781c0,2.639,2.142,4.781,4.781,4.781h28.688
		c2.641,0,4.781-2.142,4.781-4.781C326.358,69.079,324.218,66.937,321.577,66.937z"/>
	<path d="M264.203,95.624h57.375c2.639,0,4.781-2.142,4.781-4.781c0-2.639-2.143-4.781-4.781-4.781h-57.375
		c-2.64,0-4.781,2.142-4.781,4.781C259.421,93.482,261.563,95.624,264.203,95.624z"/>
	<path d="M321.577,105.187H292.89c-2.639,0-4.781,2.142-4.781,4.781c0,2.639,2.142,4.781,4.781,4.781h28.688
		c2.641,0,4.781-2.142,4.781-4.781C326.358,107.329,324.218,105.187,321.577,105.187z"/>
	<path d="M264.203,133.874h57.375c2.639,0,4.781-2.142,4.781-4.781c0-2.639-2.141-4.781-4.781-4.781h-57.375
		c-2.639,0-4.78,2.142-4.78,4.781C259.422,131.732,261.563,133.874,264.203,133.874z"/>
	<path d="M321.577,143.437H292.89c-2.639,0-4.781,2.142-4.781,4.781c0,2.639,2.142,4.781,4.781,4.781h28.688
		c2.641,0,4.781-2.142,4.781-4.781C326.358,145.579,324.218,143.437,321.577,143.437z"/>
	<path d="M350.265,390.225V46.349C350.265,17.757,328.894,0,294.487,0h-10.356c-34.798,0-58.179,18.628-58.179,46.349v343.875
		c-25.037,18.889-41.25,48.879-41.25,82.588c0,57.018,46.388,103.406,103.408,103.406c57.02,0,103.407-46.389,103.407-103.406
		C391.517,439.104,375.302,409.113,350.265,390.225z M288.109,566.219c-51.588,0-93.408-41.82-93.408-93.406
		c0-27.719,12.077-52.611,31.251-69.719c3.019-2.693,6.211-5.193,9.562-7.482V46.349c0-27.157,26.182-36.787,48.606-36.787h10.355
		c10.844,0,46.225,2.649,46.225,36.787v349.264c3.352,2.287,6.545,4.789,9.562,7.482c19.174,17.105,31.252,42,31.252,69.717
		C381.517,524.4,339.696,566.219,288.109,566.219z"/>
</g>
<g>
</g>
<g>
</g>
<g>
</g>
<g>
</g>
<g>
</g>
<g>
</g>
<g>
</g>
<g>
</g>
<g>
</g>
<g>
</g>
<g>
</g>
<g>
</g>
<g>
</g>
<g>
</g>
<g>
</g>
</svg>
