<?xml version="1.0" encoding="utf-8"?>
<!-- Generated by IcoMoon.io -->
<!DOCTYPE svg PUBLIC "-//W3C//DTD SVG 1.1//EN" "http://www.w3.org/Graphics/SVG/1.1/DTD/svg11.dtd">
<svg version="1.1" xmlns="http://www.w3.org/2000/svg" xmlns:xlink="http://www.w3.org/1999/xlink" width="512" height="512" viewBox="0 0 512 512">
<g>
</g>
	<path d="M463.227 45.333h28.642v455.178h-28.642v-455.178z" fill="#000000" />
	<path d="M286.003 11.489l-1.515 1.515-264.366 264.848 0.491 2.683c20.623 111.339 88.822 122.777 91.71 123.218l1.721 0.256 305.644-167.301 0.676-1.863 8.336-23.44 57.467-161.341-5.673-1.3c-1.075-0.236-107.070-24.484-162.478-33.679-14.592-2.416-24.361-3.604-29.88-3.604h-2.13zM29.378 283.228l262.441-262.902-3.666 1.526c4.874 0 14.346 1.157 28.17 3.461 55.111 9.145 160.809 33.3 161.874 33.556l-3.717-6.82-63.867 179.323 2.386-2.816-302.387 165.54 3.277-0.563c-2.601-0.42-63.877-11.223-83.077-114.903l-1.433 4.598z" fill="#000000" />
	<path d="M284.078 23.613c0 0-8.11 117.596 123.76 211.344l-60.774 37.356c0 0-113.040-69.438-121.928-193.782l58.942-54.917z" fill="#000000" />
	<path d="M411.423 228.526v0c0.215-1.157 20.634-118.702-128.307-204.462l5.182-8.96c155.618 89.621 133.54 214.119 133.304 215.357l-10.178-1.935z" fill="#000000" />
	<path d="M168.632 135.875c0 0-7.27 109.803 104.96 174.398l-59.587 35.901c0 0-91.402-58.542-95.437-162.683l49.264-46.838z" fill="#000000" />
	<path d="M70.994 239.728c0 0 34.939 119.163 92.15 128.717l-54.006 33.362c0 0-72.11-29.358-84.224-127.14l46.080-34.939z" fill="#000000" />
</svg>
